{"glyphs":{"0":{"ha":830,"x_min":68,"x_max":762,"o":"m 415 136 q 565 238 503 136 q 627 486 627 341 q 565 734 627 631 q 415 837 503 837 q 266 734 328 837 q 203 486 203 631 q 266 238 203 341 q 415 136 328 136 m 415 -7 q 170 139 271 -7 q 68 486 68 285 q 170 833 68 688 q 415 979 271 979 q 661 833 559 979 q 762 486 762 688 q 661 139 762 285 q 415 -7 559 -7 z "},"1":{"ha":407,"x_min":68,"x_max":339,"o":"m 203 837 l 68 837 l 68 905 l 203 972 l 339 972 l 339 0 l 203 0 l 203 837 z "},"2":{"ha":694,"x_min":68,"x_max":627,"o":"m 68 136 q 279 447 68 256 q 491 696 491 637 q 443 795 491 754 q 271 837 394 837 q 70 748 121 830 l 68 747 l 68 902 q 271 979 126 972 q 538 895 450 979 q 627 696 627 810 q 415 390 627 581 q 203 136 203 200 l 627 136 l 627 0 l 68 0 l 68 136 z "},"3":{"ha":762,"x_min":68,"x_max":694,"o":"m 339 837 l 323 837 q 121 748 173 830 l 119 747 l 119 902 q 323 979 178 972 l 339 979 q 569 895 477 979 q 661 696 661 810 q 569 500 661 581 q 563 494 566 497 q 593 473 578 485 q 694 277 694 392 q 593 78 694 162 q 339 -7 491 -7 l 258 -7 q 68 58 133 0 l 68 208 q 258 136 129 142 l 339 136 q 497 177 435 136 q 559 277 559 218 q 497 377 559 336 q 347 418 435 418 l 271 418 l 271 554 l 347 554 q 473 595 421 554 q 525 696 525 637 q 473 795 525 754 q 339 837 421 837 z "},"4":{"ha":762,"x_min":68,"x_max":694,"o":"m 627 203 l 627 0 l 491 0 l 491 203 l 68 203 l 201 972 l 339 972 l 230 339 l 491 339 l 491 972 l 627 972 l 627 339 l 694 339 l 694 203 l 627 203 z "},"5":{"ha":762,"x_min":68,"x_max":694,"o":"m 381 -7 l 305 -7 q 68 58 149 0 l 68 208 q 305 136 144 142 l 381 136 q 507 197 455 136 q 559 345 559 258 q 507 493 559 431 q 381 554 455 554 q 256 493 307 554 q 241 475 248 484 l 68 475 l 136 972 l 627 972 l 627 837 l 253 837 l 227 646 q 381 690 296 690 q 603 589 511 690 q 694 345 694 488 q 603 98 694 202 q 381 -7 511 -7 z "},"6":{"ha":762,"x_min":68,"x_max":694,"o":"m 381 136 q 507 197 455 136 q 559 345 559 258 q 507 493 559 431 q 381 554 455 554 q 255 493 307 554 q 203 345 203 431 q 255 197 203 258 q 381 136 307 136 m 195 623 q 381 690 275 690 q 603 589 511 690 q 694 345 694 488 q 603 98 694 202 q 381 -7 511 -7 q 160 101 252 -7 q 68 339 70 200 l 68 486 q 190 833 68 688 q 483 979 311 979 q 543 975 513 979 q 610 957 578 969 l 610 800 q 543 829 578 821 q 483 837 514 837 q 269 734 367 837 q 195 623 220 684 z "},"7":{"ha":694,"x_min":68,"x_max":627,"o":"m 482 837 l 68 837 l 68 972 l 627 972 l 627 837 l 212 0 l 68 0 l 482 837 z "},"8":{"ha":830,"x_min":68,"x_max":762,"o":"m 415 554 q 541 595 489 554 q 593 696 593 637 q 541 795 593 754 q 415 837 489 837 q 289 795 341 837 q 237 696 237 754 q 289 595 237 637 q 415 554 341 554 m 415 136 q 565 177 503 136 q 627 277 627 218 q 565 377 627 336 q 415 418 503 418 q 266 377 328 418 q 203 277 203 336 q 266 177 203 218 q 415 136 328 136 m 199 494 l 194 500 q 102 696 102 581 q 194 895 102 810 q 415 979 286 979 q 636 895 545 979 q 728 696 728 810 q 637 500 728 581 q 631 494 633 497 q 661 473 646 485 q 762 277 762 392 q 661 78 762 162 q 415 -7 559 -7 q 170 78 271 -7 q 68 277 68 162 q 170 473 68 392 q 199 494 184 485 z "},"9":{"ha":762,"x_min":68,"x_max":694,"o":"m 381 837 q 255 775 307 837 q 203 628 203 714 q 255 480 203 541 q 381 418 307 418 q 507 480 455 418 q 559 628 559 541 q 507 775 559 714 q 381 837 455 837 m 568 350 q 381 283 487 283 q 160 384 252 283 q 68 628 68 485 q 160 875 68 770 q 381 979 252 979 q 603 871 511 979 q 694 633 692 772 l 694 486 q 573 139 694 285 q 279 -7 451 -7 q 220 -2 249 -7 q 152 16 184 3 l 152 173 q 220 143 184 152 q 279 136 248 136 q 494 239 395 136 q 568 350 543 289 z "},"\u0000":{"ha":694,"x_min":68,"x_max":627,"o":"m 68 0 l 68 972 l 627 972 l 627 0 l 68 0 m 203 837 l 203 136 l 491 136 l 491 837 l 203 837 z "},"\u001d":{"ha":694,"x_min":68,"x_max":627,"o":"m 68 0 l 68 972 l 627 972 l 627 0 l 68 0 m 203 837 l 203 136 l 491 136 l 491 837 l 203 837 z "}," ":{"ha":347,"x_min":0,"x_max":0,"o":""}," ":{"ha":347,"x_min":0,"x_max":0,"o":""}," ":{"ha":271,"x_min":0,"x_max":0,"o":""},"​":{"ha":0,"x_min":0,"x_max":0,"o":""},"�":{"ha":694,"x_min":68,"x_max":627,"o":"m 369 298 q 447 410 369 337 q 526 553 526 484 q 477 670 526 622 q 332 719 429 719 q 220 677 252 715 l 220 583 l 222 585 q 332 637 250 633 q 425 613 398 637 q 452 553 452 588 q 373 444 452 517 q 294 298 294 371 l 369 298 m 369 217 l 294 217 l 294 136 l 369 136 l 369 217 m 68 486 l 347 1108 l 627 486 l 347 -136 l 68 486 z "},"A":{"ha":694,"x_min":0,"x_max":694,"o":"m 347 894 l 218 339 l 477 339 l 347 894 m 186 203 l 138 0 l 0 0 l 228 972 l 467 972 l 694 0 l 556 0 l 509 203 l 186 203 z "},"a":{"ha":694,"x_min":0,"x_max":694,"o":"m 347 894 l 218 339 l 477 339 l 347 894 m 186 203 l 138 0 l 0 0 l 228 972 l 467 972 l 694 0 l 556 0 l 509 203 l 186 203 z "},"B":{"ha":746,"x_min":68,"x_max":678,"o":"m 266 554 q 413 595 351 554 q 475 695 475 636 q 413 795 475 754 q 263 837 351 837 l 203 837 l 203 554 l 266 554 m 543 277 q 481 378 543 336 q 334 418 419 418 l 203 418 l 203 136 l 331 136 q 480 177 418 136 q 543 277 543 218 m 507 517 q 576 474 544 500 q 678 277 678 393 q 576 81 678 162 q 331 0 475 0 l 68 0 l 68 972 l 263 972 q 509 891 407 972 q 610 695 610 810 q 507 517 610 593 z "},"b":{"ha":746,"x_min":68,"x_max":678,"o":"m 266 554 q 413 595 351 554 q 475 695 475 636 q 413 795 475 754 q 263 837 351 837 l 203 837 l 203 554 l 266 554 m 543 277 q 481 378 543 336 q 334 418 419 418 l 203 418 l 203 136 l 331 136 q 480 177 418 136 q 543 277 543 218 m 507 517 q 576 474 544 500 q 678 277 678 393 q 576 81 678 162 q 331 0 475 0 l 68 0 l 68 972 l 263 972 q 509 891 407 972 q 610 695 610 810 q 507 517 610 593 z "},"C":{"ha":746,"x_min":68,"x_max":678,"o":"m 678 235 l 678 56 q 483 -7 590 -7 q 190 139 311 -7 q 68 486 68 285 q 190 833 68 688 q 483 979 311 979 q 678 917 590 979 l 678 737 q 483 837 597 837 q 285 734 367 837 q 203 486 203 631 q 285 238 203 341 q 483 136 367 136 q 678 235 597 136 z "},"c":{"ha":746,"x_min":68,"x_max":678,"o":"m 678 235 l 678 56 q 483 -7 590 -7 q 190 139 311 -7 q 68 486 68 285 q 190 833 68 688 q 483 979 311 979 q 678 917 590 979 l 678 737 q 483 837 597 837 q 285 734 367 837 q 203 486 203 631 q 285 238 203 341 q 483 136 367 136 q 678 235 597 136 z "},"D":{"ha":746,"x_min":68,"x_max":678,"o":"m 263 972 q 556 830 435 972 q 678 486 678 688 q 556 142 678 285 q 263 0 435 0 l 68 0 l 68 972 l 263 972 m 263 837 l 203 837 l 203 136 l 263 136 q 461 238 379 136 q 543 486 543 341 q 461 734 543 631 q 263 837 379 837 z "},"d":{"ha":746,"x_min":68,"x_max":678,"o":"m 263 972 q 556 830 435 972 q 678 486 678 688 q 556 142 678 285 q 263 0 435 0 l 68 0 l 68 972 l 263 972 m 263 837 l 203 837 l 203 136 l 263 136 q 461 238 379 136 q 543 486 543 341 q 461 734 543 631 q 263 837 379 837 z "},"E":{"ha":694,"x_min":68,"x_max":627,"o":"m 627 972 l 627 837 l 203 837 l 203 554 l 559 554 l 559 418 l 203 418 l 203 136 l 627 136 l 627 0 l 68 0 l 68 972 l 627 972 z "},"e":{"ha":694,"x_min":68,"x_max":627,"o":"m 627 972 l 627 837 l 203 837 l 203 554 l 559 554 l 559 418 l 203 418 l 203 136 l 627 136 l 627 0 l 68 0 l 68 972 l 627 972 z "},"F":{"ha":694,"x_min":68,"x_max":627,"o":"m 627 972 l 627 837 l 203 837 l 203 554 l 559 554 l 559 418 l 203 418 l 203 0 l 68 0 l 68 972 l 627 972 z "},"f":{"ha":694,"x_min":68,"x_max":627,"o":"m 627 972 l 627 837 l 203 837 l 203 554 l 559 554 l 559 418 l 203 418 l 203 0 l 68 0 l 68 972 l 627 972 z "},"G":{"ha":814,"x_min":68,"x_max":746,"o":"m 610 407 l 475 407 l 475 543 l 746 543 l 746 0 l 483 0 q 190 142 311 0 q 68 486 68 285 q 190 833 68 688 q 483 979 311 979 q 678 917 590 979 l 678 737 q 483 837 597 837 q 285 734 367 837 q 203 486 203 631 q 285 238 203 341 q 483 136 367 136 l 610 136 l 610 407 z "},"g":{"ha":814,"x_min":68,"x_max":746,"o":"m 610 407 l 475 407 l 475 543 l 746 543 l 746 0 l 483 0 q 190 142 311 0 q 68 486 68 285 q 190 833 68 688 q 483 979 311 979 q 678 917 590 979 l 678 737 q 483 837 597 837 q 285 734 367 837 q 203 486 203 631 q 285 238 203 341 q 483 136 367 136 l 610 136 l 610 407 z "},"H":{"ha":694,"x_min":68,"x_max":627,"o":"m 627 0 l 491 0 l 491 418 l 203 418 l 203 0 l 68 0 l 68 972 l 203 972 l 203 554 l 491 554 l 491 972 l 627 972 l 627 0 z "},"h":{"ha":694,"x_min":68,"x_max":627,"o":"m 627 0 l 491 0 l 491 418 l 203 418 l 203 0 l 68 0 l 68 972 l 203 972 l 203 554 l 491 554 l 491 972 l 627 972 l 627 0 z "},"I":{"ha":271,"x_min":68,"x_max":203,"o":"m 68 0 l 68 972 l 203 972 l 203 0 l 68 0 z "},"i":{"ha":271,"x_min":68,"x_max":203,"o":"m 68 0 l 68 972 l 203 972 l 203 0 l 68 0 z "},"J":{"ha":610,"x_min":68,"x_max":543,"o":"m 263 -7 q 68 58 138 0 l 68 208 q 263 136 134 142 q 365 178 323 136 q 407 279 407 220 l 407 972 l 543 972 l 543 279 q 461 78 543 163 q 263 -7 379 -7 z "},"j":{"ha":610,"x_min":68,"x_max":543,"o":"m 263 -7 q 68 58 138 0 l 68 208 q 263 136 134 142 q 365 178 323 136 q 407 279 407 220 l 407 972 l 543 972 l 543 279 q 461 78 543 163 q 263 -7 379 -7 z "},"K":{"ha":694,"x_min":68,"x_max":627,"o":"m 304 487 l 479 972 l 627 972 l 427 416 l 627 0 l 479 0 l 315 350 l 203 350 l 203 0 l 68 0 l 68 972 l 203 972 l 203 487 l 304 487 z "},"k":{"ha":694,"x_min":68,"x_max":627,"o":"m 304 487 l 479 972 l 627 972 l 427 416 l 627 0 l 479 0 l 315 350 l 203 350 l 203 0 l 68 0 l 68 972 l 203 972 l 203 487 l 304 487 z "},"L":{"ha":694,"x_min":68,"x_max":627,"o":"m 203 136 l 627 136 l 627 0 l 68 0 l 68 972 l 203 972 l 203 136 z "},"l":{"ha":694,"x_min":68,"x_max":627,"o":"m 203 136 l 627 136 l 627 0 l 68 0 l 68 972 l 203 972 l 203 136 z "},"M":{"ha":949,"x_min":68,"x_max":882,"o":"m 882 972 l 882 0 l 746 0 l 746 804 l 545 0 l 404 0 l 203 804 l 203 0 l 68 0 l 68 972 l 300 972 l 475 271 l 650 972 l 882 972 z "},"m":{"ha":949,"x_min":68,"x_max":882,"o":"m 882 972 l 882 0 l 746 0 l 746 804 l 545 0 l 404 0 l 203 804 l 203 0 l 68 0 l 68 972 l 300 972 l 475 271 l 650 972 l 882 972 z "},"N":{"ha":694,"x_min":68,"x_max":627,"o":"m 491 312 l 491 972 l 627 972 l 627 0 l 491 0 l 203 661 l 203 0 l 68 0 l 68 972 l 203 972 l 491 312 z "},"n":{"ha":694,"x_min":68,"x_max":627,"o":"m 491 312 l 491 972 l 627 972 l 627 0 l 491 0 l 203 661 l 203 0 l 68 0 l 68 972 l 203 972 l 491 312 z "},"O":{"ha":966,"x_min":68,"x_max":898,"o":"m 483 136 q 681 238 599 136 q 762 486 762 341 q 681 734 762 631 q 483 837 599 837 q 285 734 367 837 q 203 486 203 631 q 285 238 203 341 q 483 136 367 136 m 483 -7 q 190 139 311 -7 q 68 486 68 285 q 190 833 68 688 q 483 979 311 979 q 776 833 654 979 q 898 486 898 688 q 776 139 898 285 q 483 -7 654 -7 z "},"o":{"ha":966,"x_min":68,"x_max":898,"o":"m 483 136 q 681 238 599 136 q 762 486 762 341 q 681 734 762 631 q 483 837 599 837 q 285 734 367 837 q 203 486 203 631 q 285 238 203 341 q 483 136 367 136 m 483 -7 q 190 139 311 -7 q 68 486 68 285 q 190 833 68 688 q 483 979 311 979 q 776 833 654 979 q 898 486 898 688 q 776 139 898 285 q 483 -7 654 -7 z "},"P":{"ha":678,"x_min":68,"x_max":610,"o":"m 203 414 l 263 414 q 413 476 351 414 q 475 625 475 538 q 413 775 475 713 q 263 837 351 837 l 203 837 l 203 414 m 263 278 l 203 278 l 203 0 l 68 0 l 68 972 l 263 972 q 509 871 407 972 q 610 625 610 769 q 509 380 610 481 q 263 278 407 278 z "},"p":{"ha":678,"x_min":68,"x_max":610,"o":"m 203 414 l 263 414 q 413 476 351 414 q 475 625 475 538 q 413 775 475 713 q 263 837 351 837 l 203 837 l 203 414 m 263 278 l 203 278 l 203 0 l 68 0 l 68 972 l 263 972 q 509 871 407 972 q 610 625 610 769 q 509 380 610 481 q 263 278 407 278 z "},"Q":{"ha":966,"x_min":68,"x_max":898,"o":"m 566 151 l 483 258 l 595 334 l 675 231 q 681 239 677 235 q 762 486 762 341 q 681 734 762 631 q 483 837 599 837 q 285 734 367 837 q 203 486 203 631 q 285 238 203 341 q 483 136 367 136 q 566 151 527 136 m 758 122 l 898 -60 l 785 -136 l 650 40 q 483 -7 574 -7 q 190 139 311 -7 q 68 486 68 285 q 190 833 68 688 q 483 979 311 979 q 776 833 654 979 q 898 486 898 688 q 777 142 898 285 q 758 122 767 132 z "},"q":{"ha":966,"x_min":68,"x_max":898,"o":"m 566 151 l 483 258 l 595 334 l 675 231 q 681 239 677 235 q 762 486 762 341 q 681 734 762 631 q 483 837 599 837 q 285 734 367 837 q 203 486 203 631 q 285 238 203 341 q 483 136 367 136 q 566 151 527 136 m 758 122 l 898 -60 l 785 -136 l 650 40 q 483 -7 574 -7 q 190 139 311 -7 q 68 486 68 285 q 190 833 68 688 q 483 979 311 979 q 776 833 654 979 q 898 486 898 688 q 777 142 898 285 q 758 122 767 132 z "},"R":{"ha":694,"x_min":68,"x_max":627,"o":"m 203 414 l 263 414 q 413 476 351 414 q 475 625 475 538 q 413 775 475 713 q 263 837 351 837 l 203 837 l 203 414 m 263 278 l 203 278 l 203 0 l 68 0 l 68 972 l 263 972 q 509 871 407 972 q 610 625 610 769 q 509 380 610 481 q 480 354 494 366 l 627 0 l 479 0 l 359 290 q 263 278 313 278 z "},"r":{"ha":694,"x_min":68,"x_max":627,"o":"m 203 414 l 263 414 q 413 476 351 414 q 475 625 475 538 q 413 775 475 713 q 263 837 351 837 l 203 837 l 203 414 m 263 278 l 203 278 l 203 0 l 68 0 l 68 972 l 263 972 q 509 871 407 972 q 610 625 610 769 q 509 380 610 481 q 480 354 494 366 l 627 0 l 479 0 l 359 290 q 263 278 313 278 z "},"S":{"ha":796,"x_min":68,"x_max":728,"o":"m 381 418 q 160 499 252 418 q 68 696 68 581 q 160 895 68 810 q 441 979 252 979 q 636 929 578 972 l 636 774 l 635 775 q 441 837 583 830 q 255 795 307 837 q 203 696 203 754 q 255 595 203 637 q 381 554 307 554 q 627 473 525 554 q 728 277 728 392 q 627 78 728 162 q 305 -7 525 -7 q 68 58 149 0 l 68 208 q 305 136 144 142 q 531 177 469 136 q 593 277 593 218 q 531 377 593 336 q 381 418 469 418 z "},"s":{"ha":796,"x_min":68,"x_max":728,"o":"m 381 418 q 160 499 252 418 q 68 696 68 581 q 160 895 68 810 q 441 979 252 979 q 636 929 578 972 l 636 774 l 635 775 q 441 837 583 830 q 255 795 307 837 q 203 696 203 754 q 255 595 203 637 q 381 554 307 554 q 627 473 525 554 q 728 277 728 392 q 627 78 728 162 q 305 -7 525 -7 q 68 58 149 0 l 68 208 q 305 136 144 142 q 531 177 469 136 q 593 277 593 218 q 531 377 593 336 q 381 418 469 418 z "},"T":{"ha":694,"x_min":68,"x_max":627,"o":"m 627 972 l 627 837 l 415 837 l 415 0 l 279 0 l 279 837 l 68 837 l 68 972 l 627 972 z "},"t":{"ha":694,"x_min":68,"x_max":627,"o":"m 627 972 l 627 837 l 415 837 l 415 0 l 279 0 l 279 837 l 68 837 l 68 972 l 627 972 z "},"U":{"ha":830,"x_min":68,"x_max":762,"o":"m 627 347 l 627 972 l 762 972 l 762 347 q 661 98 762 203 q 415 -7 559 -7 q 170 98 271 -7 q 68 347 68 203 l 68 972 l 203 972 l 203 347 q 266 198 203 260 q 415 136 328 136 q 565 198 503 136 q 627 347 627 260 z "},"u":{"ha":830,"x_min":68,"x_max":762,"o":"m 627 347 l 627 972 l 762 972 l 762 347 q 661 98 762 203 q 415 -7 559 -7 q 170 98 271 -7 q 68 347 68 203 l 68 972 l 203 972 l 203 347 q 266 198 203 260 q 415 136 328 136 q 565 198 503 136 q 627 347 627 260 z "},"V":{"ha":728,"x_min":34,"x_max":694,"o":"m 262 0 l 34 972 l 172 972 l 364 151 l 556 972 l 694 972 l 467 0 l 262 0 z "},"v":{"ha":728,"x_min":34,"x_max":694,"o":"m 262 0 l 34 972 l 172 972 l 364 151 l 556 972 l 694 972 l 467 0 l 262 0 z "},"W":{"ha":981,"x_min":34,"x_max":947,"o":"m 724 144 l 808 972 l 947 972 l 848 0 l 615 0 l 490 625 l 366 0 l 134 0 l 34 972 l 172 972 l 256 144 l 421 972 l 559 972 l 724 144 z "},"w":{"ha":981,"x_min":34,"x_max":947,"o":"m 724 144 l 808 972 l 947 972 l 848 0 l 615 0 l 490 625 l 366 0 l 134 0 l 34 972 l 172 972 l 256 144 l 421 972 l 559 972 l 724 144 z "},"X":{"ha":712,"x_min":34,"x_max":678,"o":"m 356 618 l 541 972 l 678 972 l 425 486 l 678 0 l 540 0 l 356 353 l 172 0 l 34 0 l 287 486 l 34 972 l 172 972 l 356 618 z "},"x":{"ha":712,"x_min":34,"x_max":678,"o":"m 356 618 l 541 972 l 678 972 l 425 486 l 678 0 l 540 0 l 356 353 l 172 0 l 34 0 l 287 486 l 34 972 l 172 972 l 356 618 z "},"Y":{"ha":627,"x_min":34,"x_max":593,"o":"m 245 291 l 34 972 l 172 972 l 313 510 l 454 972 l 593 972 l 381 284 l 381 0 l 245 0 l 245 291 z "},"y":{"ha":627,"x_min":34,"x_max":593,"o":"m 245 291 l 34 972 l 172 972 l 313 510 l 454 972 l 593 972 l 381 284 l 381 0 l 245 0 l 245 291 z "},"Z":{"ha":694,"x_min":68,"x_max":627,"o":"m 482 837 l 68 837 l 68 972 l 627 972 l 627 837 l 212 136 l 627 136 l 627 0 l 68 0 l 68 136 l 482 837 z "},"z":{"ha":694,"x_min":68,"x_max":627,"o":"m 482 837 l 68 837 l 68 972 l 627 972 l 627 837 l 212 136 l 627 136 l 627 0 l 68 0 l 68 136 l 482 837 z "},".":{"ha":271,"x_min":68,"x_max":203,"o":"m 203 0 l 68 0 l 68 136 l 203 136 l 203 0 z "},":":{"ha":271,"x_min":68,"x_max":203,"o":"m 203 514 l 68 514 l 68 650 l 203 650 l 203 514 m 203 0 l 68 0 l 68 136 l 203 136 l 203 0 z "},",":{"ha":271,"x_min":0,"x_max":203,"o":"m 136 0 l 68 0 l 68 136 l 203 136 l 203 -68 l 0 -136 l 0 -68 l 136 0 z "},";":{"ha":271,"x_min":0,"x_max":203,"o":"m 136 0 l 68 0 l 68 136 l 203 136 l 203 -68 l 0 -136 l 0 -68 l 136 0 m 203 514 l 68 514 l 68 650 l 203 650 l 203 514 z "},"'":{"ha":271,"x_min":68,"x_max":203,"o":"m 68 814 l 68 1017 l 203 1017 l 203 814 l 170 650 l 102 650 l 68 814 z "},"\"":{"ha":475,"x_min":68,"x_max":407,"o":"m 271 814 l 271 1017 l 407 1017 l 407 814 l 373 650 l 305 650 l 271 814 m 68 814 l 68 1017 l 203 1017 l 203 814 l 170 650 l 102 650 l 68 814 z "},"(":{"ha":475,"x_min":68,"x_max":373,"o":"m 373 -136 l 216 -136 q 170 -50 192 -98 q 68 486 68 172 q 170 1022 68 800 q 216 1108 192 1070 l 373 1108 l 373 1097 q 266 926 312 1063 q 203 486 203 744 q 266 47 203 229 q 373 -124 312 -90 l 373 -136 z "},"!":{"ha":339,"x_min":102,"x_max":237,"o":"m 215 271 l 124 271 l 102 650 l 102 972 l 237 972 l 237 650 l 215 271 m 237 0 l 102 0 l 102 136 l 237 136 l 237 0 z "},"?":{"ha":762,"x_min":102,"x_max":661,"o":"m 373 0 l 237 0 l 237 136 l 373 136 l 373 0 m 237 271 q 381 514 237 392 q 525 696 525 637 q 476 795 525 754 q 305 837 428 837 q 104 748 155 830 l 102 747 l 102 902 q 305 979 160 972 q 572 895 484 979 q 661 696 661 810 q 517 458 661 581 q 373 271 373 336 l 237 271 z "},")":{"ha":475,"x_min":102,"x_max":407,"o":"m 102 -136 l 102 -124 q 209 47 163 -90 q 271 486 271 229 q 209 926 271 744 q 102 1097 163 1063 l 102 1108 l 259 1108 q 305 1022 283 1070 q 407 486 407 800 q 305 -50 407 172 q 259 -136 283 -98 l 102 -136 z "},"+":{"ha":694,"x_min":68,"x_max":627,"o":"m 279 554 l 279 766 l 415 766 l 415 554 l 627 554 l 627 418 l 415 418 l 415 207 l 279 207 l 279 418 l 68 418 l 68 554 l 279 554 z "},"-":{"ha":559,"x_min":68,"x_max":491,"o":"m 491 418 l 68 418 l 68 554 l 491 554 l 491 418 z "},"*":{"ha":458,"x_min":68,"x_max":391,"o":"m 263 928 l 329 994 l 368 956 l 302 890 l 391 890 l 391 822 l 302 822 l 368 756 l 329 718 l 263 783 l 263 694 l 195 694 l 195 783 l 130 718 l 91 756 l 157 822 l 68 822 l 68 890 l 157 890 l 91 956 l 130 994 l 195 928 l 195 1017 l 263 1017 l 263 928 z "},"/":{"ha":576,"x_min":0,"x_max":576,"o":"m 439 972 l 576 972 l 138 -136 l 0 -136 l 439 972 z "},"=":{"ha":694,"x_min":68,"x_max":627,"o":"m 627 554 l 68 554 l 68 656 l 627 656 l 627 554 m 627 317 l 68 317 l 68 418 l 627 418 l 627 317 z "},"\\":{"ha":576,"x_min":0,"x_max":576,"o":"m 138 972 l 576 -136 l 438 -136 l 0 972 l 138 972 z "},"…":{"ha":746,"x_min":68,"x_max":678,"o":"m 678 0 l 543 0 l 543 136 l 678 136 l 678 0 m 203 0 l 68 0 l 68 136 l 203 136 l 203 0 m 441 0 l 305 0 l 305 136 l 441 136 l 441 0 z "},"_":{"ha":559,"x_min":68,"x_max":491,"o":"m 491 -136 l 68 -136 l 68 0 l 491 0 l 491 -136 z "},"­":{"ha":423,"x_min":68,"x_max":355,"o":"m 355 418 l 68 418 l 68 554 l 355 554 l 355 418 z "},"−":{"ha":694,"x_min":68,"x_max":627,"o":"m 627 418 l 68 418 l 68 554 l 627 554 l 627 418 z "},"‒":{"ha":694,"x_min":68,"x_max":627,"o":"m 627 418 l 68 418 l 68 554 l 627 554 l 627 418 z "},"–":{"ha":559,"x_min":68,"x_max":491,"o":"m 491 418 l 68 418 l 68 554 l 491 554 l 491 418 z "},"—":{"ha":830,"x_min":68,"x_max":762,"o":"m 762 418 l 68 418 l 68 554 l 762 554 l 762 418 z "},"―":{"ha":1108,"x_min":68,"x_max":1040,"o":"m 1040 418 l 68 418 l 68 554 l 1040 554 l 1040 418 z "},"ʹ":{"ha":271,"x_min":68,"x_max":203,"o":"m 68 814 l 68 1017 l 203 1017 l 203 814 l 170 650 l 102 650 l 68 814 z "},"ʺ":{"ha":475,"x_min":68,"x_max":407,"o":"m 271 814 l 271 1017 l 407 1017 l 407 814 l 373 650 l 305 650 l 271 814 m 68 814 l 68 1017 l 203 1017 l 203 814 l 170 650 l 102 650 l 68 814 z "},"ʻ":{"ha":271,"x_min":68,"x_max":203,"o":"m 68 814 l 68 1017 l 203 1017 l 203 814 l 170 650 l 102 650 l 68 814 z "},"ʼ":{"ha":271,"x_min":68,"x_max":203,"o":"m 68 814 l 68 1017 l 203 1017 l 203 814 l 170 650 l 102 650 l 68 814 z "},"ʽ":{"ha":271,"x_min":68,"x_max":203,"o":"m 68 814 l 68 1017 l 203 1017 l 203 814 l 170 650 l 102 650 l 68 814 z "},"‘":{"ha":271,"x_min":68,"x_max":203,"o":"m 68 814 l 68 1017 l 203 1017 l 203 814 l 170 650 l 102 650 l 68 814 z "},"’":{"ha":271,"x_min":68,"x_max":203,"o":"m 68 814 l 68 1017 l 203 1017 l 203 814 l 170 650 l 102 650 l 68 814 z "},"‚":{"ha":271,"x_min":68,"x_max":203,"o":"m 68 28 l 68 232 l 203 232 l 203 28 l 170 -136 l 102 -136 l 68 28 z "},"‛":{"ha":271,"x_min":68,"x_max":203,"o":"m 68 814 l 68 1017 l 203 1017 l 203 814 l 170 650 l 102 650 l 68 814 z "},"“":{"ha":475,"x_min":68,"x_max":407,"o":"m 271 814 l 271 1017 l 407 1017 l 407 814 l 373 650 l 305 650 l 271 814 m 68 814 l 68 1017 l 203 1017 l 203 814 l 170 650 l 102 650 l 68 814 z "},"”":{"ha":475,"x_min":68,"x_max":407,"o":"m 271 814 l 271 1017 l 407 1017 l 407 814 l 373 650 l 305 650 l 271 814 m 68 814 l 68 1017 l 203 1017 l 203 814 l 170 650 l 102 650 l 68 814 z "},"„":{"ha":475,"x_min":68,"x_max":407,"o":"m 271 28 l 271 232 l 407 232 l 407 28 l 373 -136 l 305 -136 l 271 28 m 68 28 l 68 232 l 203 232 l 203 28 l 170 -136 l 102 -136 l 68 28 z "},"‟":{"ha":475,"x_min":68,"x_max":407,"o":"m 271 814 l 271 1017 l 407 1017 l 407 814 l 373 650 l 305 650 l 271 814 m 68 814 l 68 1017 l 203 1017 l 203 814 l 170 650 l 102 650 l 68 814 z "},"·":{"ha":271,"x_min":68,"x_max":203,"o":"m 203 418 l 68 418 l 68 554 l 203 554 l 203 418 z "},"∙":{"ha":339,"x_min":68,"x_max":271,"o":"m 170 385 q 98 414 127 385 q 68 486 68 444 q 98 558 68 528 q 170 588 127 588 q 241 558 212 588 q 271 486 271 528 q 241 414 271 444 q 170 385 212 385 z "},"∕":{"ha":576,"x_min":0,"x_max":576,"o":"m 439 972 l 576 972 l 138 0 l 0 0 l 439 972 z "},"⁄":{"ha":576,"x_min":0,"x_max":576,"o":"m 439 972 l 576 972 l 138 0 l 0 0 l 439 972 z "},"•":{"ha":423,"x_min":68,"x_max":355,"o":"m 212 342 q 110 385 152 342 q 68 486 68 427 q 110 588 68 546 q 212 630 152 630 q 313 588 271 630 q 355 486 355 546 q 313 385 355 427 q 212 342 271 342 z "},"‾":{"ha":559,"x_min":68,"x_max":491,"o":"m 491 972 l 68 972 l 68 1108 l 491 1108 l 491 972 z "},"☡":{"ha":780,"x_min":68,"x_max":712,"o":"m 509 136 l 712 136 l 712 0 l 373 0 l 373 840 l 206 0 l 68 0 l 262 972 l 509 972 l 509 136 z "},"$":{"ha":796,"x_min":68,"x_max":728,"o":"m 347 556 l 347 830 q 256 795 286 821 q 203 696 203 754 q 256 595 203 637 q 347 556 295 564 m 449 412 l 449 147 q 531 177 501 157 q 593 277 593 218 q 531 377 593 336 q 449 412 494 401 m 347 136 l 347 420 q 160 500 239 429 q 68 696 68 581 q 160 892 68 810 q 347 974 227 958 l 347 1108 l 449 1108 l 449 979 q 636 936 580 972 l 636 781 l 635 782 q 449 836 584 829 l 449 549 q 627 473 550 534 q 728 277 728 392 q 627 81 728 162 q 449 4 562 22 l 449 -136 l 347 -136 l 347 -6 q 305 -7 327 -7 q 68 51 149 0 l 68 201 q 305 136 144 142 q 347 136 327 136 z "},"¢":{"ha":610,"x_min":68,"x_max":543,"o":"m 322 149 l 322 501 q 259 459 288 488 q 203 325 203 404 q 259 191 203 246 q 322 149 288 162 m 424 138 q 527 191 483 147 q 543 209 535 199 l 543 36 q 424 -5 488 0 l 424 -136 l 322 -136 l 322 1 q 163 96 233 19 q 68 325 68 191 q 163 555 68 459 q 322 649 233 631 l 322 785 l 424 785 l 424 655 q 543 614 488 650 l 543 441 q 527 459 535 450 q 424 512 483 503 l 424 138 z "},"£":{"ha":694,"x_min":68,"x_max":627,"o":"m 282 537 l 543 537 l 543 435 l 299 435 q 303 339 303 390 q 239 136 303 222 l 627 136 l 627 0 l 68 0 l 68 136 q 100 186 81 162 q 168 339 168 275 q 157 435 168 382 l 68 435 l 68 537 l 133 537 q 119 696 119 609 q 208 895 119 810 q 407 979 296 979 q 610 902 552 972 l 610 747 l 608 748 q 407 837 557 830 q 303 795 352 837 q 255 696 255 754 q 279 549 255 637 q 282 537 281 543 z "},"¥":{"ha":694,"x_min":68,"x_max":627,"o":"m 484 509 l 618 509 l 618 407 l 453 407 l 432 339 l 618 339 l 618 237 l 415 237 l 415 0 l 279 0 l 279 237 l 76 237 l 76 339 l 264 339 l 243 407 l 76 407 l 76 509 l 212 509 l 68 972 l 206 972 l 347 510 l 488 972 l 627 972 l 484 509 z "},"¤":{"ha":838,"x_min":68,"x_max":770,"o":"m 419 342 q 521 385 479 342 q 563 486 563 427 q 521 588 563 546 q 419 630 479 630 q 317 588 359 630 q 275 486 275 546 q 317 385 275 427 q 419 342 359 342 m 563 726 l 674 838 l 770 741 l 659 630 q 699 486 699 566 q 659 342 699 406 l 770 231 l 674 135 l 563 246 q 419 207 499 207 q 275 246 339 207 l 164 135 l 68 231 l 179 342 q 140 486 140 406 q 179 630 140 566 l 68 741 l 164 838 l 275 726 q 419 766 339 766 q 563 726 499 766 z "},"÷":{"ha":694,"x_min":68,"x_max":627,"o":"m 415 215 l 279 215 l 279 351 l 415 351 l 415 215 m 627 418 l 68 418 l 68 554 l 627 554 l 627 418 m 415 622 l 279 622 l 279 758 l 415 758 l 415 622 z "},"%":{"ha":948,"x_min":68,"x_max":880,"o":"m 711 155 q 754 181 736 155 q 772 245 772 208 q 754 310 772 283 q 711 336 736 336 q 668 310 686 336 q 650 245 650 283 q 668 181 650 208 q 711 155 686 155 m 237 818 q 194 791 212 818 q 176 727 176 765 q 194 663 176 689 q 237 636 212 636 q 280 663 262 636 q 298 727 298 689 q 280 791 298 765 q 237 818 262 818 m 196 0 l 640 972 l 752 972 l 309 0 l 196 0 m 237 939 q 357 877 307 939 q 407 727 407 814 q 357 577 407 640 q 237 515 307 515 q 118 577 168 515 q 68 727 68 640 q 118 877 68 814 q 237 939 168 939 m 711 34 q 591 96 641 34 q 541 245 541 158 q 591 395 541 333 q 711 457 641 457 q 830 395 781 457 q 880 245 880 333 q 830 96 880 158 q 711 34 781 34 z "},"‰":{"ha":1355,"x_min":68,"x_max":1287,"o":"m 1118 155 q 1161 181 1143 155 q 1179 245 1179 208 q 1161 310 1179 283 q 1118 336 1143 336 q 1075 310 1093 336 q 1057 245 1057 283 q 1075 181 1057 208 q 1118 155 1093 155 m 237 818 q 194 791 212 818 q 176 727 176 765 q 194 663 176 689 q 237 636 212 636 q 280 663 262 636 q 298 727 298 689 q 280 791 298 765 q 237 818 262 818 m 711 155 q 754 181 736 155 q 772 245 772 208 q 754 310 772 283 q 711 336 736 336 q 668 310 686 336 q 650 245 650 283 q 668 181 650 208 q 711 155 686 155 m 1118 34 q 998 96 1048 34 q 948 245 948 158 q 998 395 948 333 q 1118 457 1048 457 q 1237 395 1187 457 q 1287 245 1287 333 q 1237 96 1287 158 q 1118 34 1187 34 m 237 939 q 357 877 307 939 q 407 727 407 814 q 357 577 407 640 q 237 515 307 515 q 118 577 168 515 q 68 727 68 640 q 118 877 68 814 q 237 939 168 939 m 711 34 q 591 96 641 34 q 541 245 541 158 q 591 395 541 333 q 711 457 641 457 q 830 395 781 457 q 880 245 880 333 q 830 96 880 158 q 711 34 781 34 m 196 0 l 640 972 l 752 972 l 309 0 l 196 0 z "},"#":{"ha":746,"x_min":68,"x_max":678,"o":"m 345 769 l 480 769 l 509 972 l 644 972 l 616 769 l 678 769 l 678 633 l 597 633 l 556 339 l 610 339 l 610 203 l 537 203 l 509 0 l 373 0 l 401 203 l 266 203 l 237 0 l 102 0 l 130 203 l 68 203 l 68 339 l 149 339 l 190 633 l 136 633 l 136 769 l 209 769 l 237 972 l 373 972 l 345 769 m 461 633 l 326 633 l 285 339 l 420 339 l 461 633 z "},"@":{"ha":1108,"x_min":68,"x_max":1040,"o":"m 554 298 q 614 343 589 298 q 639 451 639 388 q 614 559 639 514 q 554 604 589 604 q 494 559 519 604 q 469 451 469 514 q 494 343 469 388 q 554 298 519 298 m 334 451 q 398 655 334 570 q 554 739 463 739 q 710 655 646 739 q 774 451 774 570 q 729 275 774 351 l 761 275 q 863 317 821 275 q 905 418 905 359 q 802 714 905 592 q 554 837 699 837 q 306 714 409 837 q 203 418 203 592 q 306 122 203 245 q 554 0 409 0 q 678 26 621 0 l 678 -119 q 554 -142 619 -142 q 210 23 353 -142 q 68 418 68 189 q 210 813 68 648 q 554 979 353 979 q 898 813 755 979 q 1040 418 1040 648 q 959 221 1040 302 q 761 139 877 139 l 646 139 q 415 221 497 139 q 334 451 334 302 z "},"&":{"ha":898,"x_min":68,"x_max":830,"o":"m 517 214 q 398 320 465 262 q 309 399 350 361 q 266 377 286 391 q 203 277 203 336 q 244 177 203 218 q 373 136 286 136 q 407 140 389 136 q 517 214 449 147 m 237 696 q 345 549 237 657 q 349 550 347 550 q 425 595 393 554 q 457 696 457 637 q 425 795 457 754 q 347 837 393 837 q 270 795 302 837 q 237 696 237 754 m 604 314 q 746 509 667 393 l 746 335 q 688 231 717 278 q 830 0 830 83 l 694 0 q 610 123 694 35 q 442 3 526 19 q 373 -7 407 -7 q 149 78 229 -7 q 68 277 68 162 q 170 473 68 392 q 210 501 189 489 q 102 696 102 623 q 174 895 102 810 q 347 979 245 979 q 521 895 449 979 q 593 696 593 810 q 521 500 593 581 q 455 446 490 465 q 534 376 491 413 q 604 314 571 344 z "},"¿":{"ha":762,"x_min":102,"x_max":661,"o":"m 389 837 l 525 837 l 525 701 l 389 701 l 389 837 m 525 566 q 381 322 525 445 q 237 141 237 200 q 286 41 237 83 q 457 0 334 0 q 659 89 607 7 l 661 90 l 661 -65 q 457 -142 602 -136 q 190 -58 279 -142 q 102 141 102 26 q 245 379 102 256 q 389 566 389 501 l 525 566 z "},"¡":{"ha":339,"x_min":102,"x_max":237,"o":"m 124 566 l 215 566 l 237 187 l 237 -136 l 102 -136 l 102 187 l 124 566 m 102 837 l 237 837 l 237 701 l 102 701 l 102 837 z "},"|":{"ha":407,"x_min":136,"x_max":271,"o":"m 271 -136 l 136 -136 l 136 1108 l 271 1108 l 271 -136 z "},"{":{"ha":475,"x_min":34,"x_max":407,"o":"m 102 829 q 183 1026 102 945 q 381 1108 265 1108 l 407 1108 l 407 972 l 381 972 q 279 930 321 972 q 237 829 237 888 l 237 622 q 186 486 237 543 q 237 351 237 429 l 237 144 q 279 42 237 84 q 381 0 321 0 l 407 0 l 407 -136 l 381 -136 q 183 -54 265 -136 q 102 144 102 28 l 102 351 q 82 399 102 379 q 34 418 62 418 l 34 554 q 82 574 62 554 q 102 622 102 593 l 102 829 z "},"}":{"ha":475,"x_min":68,"x_max":441,"o":"m 237 829 q 195 930 237 888 q 94 972 153 972 l 68 972 l 68 1108 l 94 1108 q 291 1026 210 1108 q 373 829 373 945 l 373 622 q 393 574 373 593 q 441 554 413 554 l 441 418 q 393 399 413 418 q 373 351 373 379 l 373 144 q 291 -54 373 28 q 94 -136 210 -136 l 68 -136 l 68 0 l 94 0 q 195 42 153 0 q 237 144 237 84 l 237 351 q 289 486 237 429 q 237 622 237 543 l 237 829 z "},"<":{"ha":694,"x_min":68,"x_max":627,"o":"m 68 554 l 627 758 l 627 622 l 254 486 l 627 351 l 627 215 l 68 418 l 68 554 z "},">":{"ha":694,"x_min":68,"x_max":627,"o":"m 440 486 l 68 622 l 68 758 l 627 554 l 627 418 l 68 215 l 68 351 l 440 486 z "},"[":{"ha":475,"x_min":68,"x_max":373,"o":"m 203 0 l 373 0 l 373 -136 l 68 -136 l 68 1108 l 373 1108 l 373 972 l 203 972 l 203 0 z "},"]":{"ha":475,"x_min":102,"x_max":407,"o":"m 407 -136 l 102 -136 l 102 0 l 271 0 l 271 972 l 102 972 l 102 1108 l 407 1108 l 407 -136 z "},"§":{"ha":796,"x_min":68,"x_max":728,"o":"m 441 1115 q 636 1053 548 1115 l 636 873 q 441 972 555 972 q 255 931 307 972 q 203 831 203 890 q 469 667 210 772 q 728 413 728 562 q 667 254 728 323 q 728 142 728 197 q 627 -58 728 26 q 305 -142 525 -142 q 110 -79 198 -142 l 110 100 q 305 0 191 0 q 531 41 469 0 q 593 142 593 83 q 327 306 586 200 q 68 560 68 411 q 126 722 68 651 q 68 831 68 777 q 160 1030 68 946 q 441 1115 252 1115 m 556 332 q 593 413 593 368 q 330 594 593 471 q 236 642 278 618 q 203 560 203 606 q 466 379 203 501 q 556 332 515 355 z "},"¶":{"ha":746,"x_min":68,"x_max":678,"o":"m 373 348 q 170 438 256 359 q 68 659 68 530 q 170 881 68 789 q 415 972 271 972 l 678 972 l 678 871 l 644 871 l 644 -136 l 543 -136 l 543 871 l 475 871 l 475 -136 l 373 -136 l 373 348 z "},"µ":{"ha":785,"x_min":68,"x_max":718,"o":"m 718 0 l 582 0 l 582 60 q 393 0 500 0 q 203 60 286 0 l 203 -136 l 68 -136 l 68 650 l 203 650 l 203 325 q 259 191 203 246 q 393 136 314 136 q 527 191 471 136 q 582 325 582 246 l 582 650 l 718 650 l 718 0 z "},"`":{"ha":407,"x_min":68,"x_max":339,"o":"m 339 701 l 203 701 l 68 972 l 271 972 l 339 701 z "},"^":{"ha":694,"x_min":68,"x_max":627,"o":"m 417 972 l 627 414 l 487 414 l 347 786 l 208 414 l 68 414 l 277 972 l 417 972 z "},"~":{"ha":846,"x_min":68,"x_max":779,"o":"m 395 418 q 333 490 395 418 q 212 562 271 562 q 106 540 152 562 q 68 509 79 526 l 68 671 q 212 698 136 698 q 451 554 328 698 q 635 410 575 410 q 740 433 694 410 q 779 463 768 446 l 779 302 q 635 275 711 275 q 395 418 519 275 z "},"©":{"ha":1108,"x_min":68,"x_max":1040,"o":"m 712 370 l 712 197 q 562 161 644 161 q 333 257 428 161 q 237 486 237 352 q 333 716 237 621 q 562 811 428 811 q 712 775 644 811 l 712 602 q 696 621 705 612 q 562 675 641 675 q 428 620 484 675 q 373 486 373 565 q 428 352 373 408 q 562 297 484 297 q 696 353 641 297 q 712 370 705 361 m 554 119 q 814 226 707 119 q 922 486 922 334 q 814 746 922 639 q 554 854 707 854 q 294 746 401 854 q 186 486 186 639 q 294 226 186 334 q 554 119 401 119 m 554 -7 q 210 139 353 -7 q 68 486 68 285 q 210 833 68 688 q 554 979 353 979 q 898 833 755 979 q 1040 486 1040 688 q 898 139 1040 285 q 554 -7 755 -7 z "},"®":{"ha":893,"x_min":68,"x_max":825,"o":"m 437 558 q 512 589 481 558 q 543 664 543 620 q 512 739 543 707 q 437 770 481 770 l 407 770 l 407 558 l 437 558 m 539 523 l 610 351 l 537 351 l 477 494 q 437 490 458 490 l 407 490 l 407 351 l 339 351 l 339 838 l 437 838 q 559 787 509 838 q 610 664 610 736 q 559 541 610 592 q 539 523 549 531 m 447 283 q 666 374 575 283 q 758 594 758 465 q 666 813 758 722 q 447 905 575 905 q 227 813 318 905 q 136 594 136 722 q 227 374 136 465 q 447 283 318 283 m 447 215 q 179 326 290 215 q 68 594 68 437 q 179 862 68 751 q 447 972 290 972 q 714 862 604 972 q 825 594 825 751 q 714 326 825 437 q 447 215 604 215 z "},"™":{"ha":856,"x_min":68,"x_max":788,"o":"m 241 905 l 241 486 l 174 486 l 174 905 l 68 905 l 68 972 l 347 972 l 347 905 l 241 905 m 449 888 l 449 486 l 381 486 l 381 972 l 497 972 l 585 622 l 673 972 l 788 972 l 788 486 l 720 486 l 720 888 l 620 486 l 549 486 l 449 888 z "},"€":{"ha":882,"x_min":68,"x_max":814,"o":"m 219 351 l 68 351 l 136 452 l 204 452 q 203 486 203 469 q 204 520 203 503 l 68 520 l 136 622 l 219 622 q 326 830 247 739 q 618 979 447 979 q 814 917 726 979 l 814 737 q 618 837 733 837 q 421 734 503 837 q 360 622 380 683 l 746 622 l 678 520 l 340 520 q 339 486 339 503 q 340 452 339 469 l 678 452 l 610 351 l 360 351 q 421 239 380 290 q 618 136 503 136 q 814 235 733 136 l 814 56 q 618 -7 726 -7 q 326 142 447 -7 q 219 351 247 234 z "},"°":{"ha":694,"x_min":68,"x_max":627,"o":"m 347 549 q 449 591 407 549 q 491 693 491 633 q 449 795 491 753 q 347 837 407 837 q 245 795 288 837 q 203 693 203 753 q 245 591 203 633 q 347 549 288 549 m 347 407 q 150 492 231 407 q 68 693 68 577 q 150 894 68 809 q 347 979 231 979 q 545 894 463 979 q 627 693 627 809 q 545 492 627 577 q 347 407 463 407 z "},"×":{"ha":694,"x_min":68,"x_max":627,"o":"m 347 583 l 530 766 l 627 669 l 444 486 l 627 303 l 530 207 l 347 390 l 164 207 l 68 303 l 251 486 l 68 669 l 164 766 l 347 583 z "},"±":{"ha":694,"x_min":68,"x_max":627,"o":"m 627 0 l 68 0 l 68 136 l 627 136 l 627 0 m 279 554 l 279 766 l 415 766 l 415 554 l 627 554 l 627 418 l 415 418 l 415 207 l 279 207 l 279 418 l 68 418 l 68 554 l 279 554 z "},"¦":{"ha":407,"x_min":136,"x_max":271,"o":"m 271 351 l 271 -136 l 136 -136 l 136 351 l 271 351 m 136 622 l 136 1108 l 271 1108 l 271 622 l 136 622 z "},"≤":{"ha":694,"x_min":68,"x_max":627,"o":"m 627 0 l 68 0 l 68 136 l 627 136 l 627 0 m 68 554 l 627 758 l 627 622 l 254 486 l 627 351 l 627 215 l 68 418 l 68 554 z "},"≥":{"ha":694,"x_min":68,"x_max":627,"o":"m 68 0 l 68 136 l 627 136 l 627 0 l 68 0 m 440 486 l 68 622 l 68 758 l 627 554 l 627 418 l 68 215 l 68 351 l 440 486 z "},"⁃":{"ha":423,"x_min":68,"x_max":355,"o":"m 355 418 l 68 418 l 68 554 l 355 554 l 355 418 z "},"⁅":{"ha":475,"x_min":68,"x_max":373,"o":"m 203 509 l 373 509 l 373 441 l 203 441 l 203 0 l 373 0 l 373 -136 l 68 -136 l 68 1108 l 373 1108 l 373 972 l 203 972 l 203 509 z "},"⁆":{"ha":475,"x_min":102,"x_max":407,"o":"m 271 441 l 102 441 l 102 509 l 271 509 l 271 972 l 102 972 l 102 1108 l 407 1108 l 407 -136 l 102 -136 l 102 0 l 271 0 l 271 441 z "},"⌐":{"ha":694,"x_min":68,"x_max":627,"o":"m 203 418 l 203 283 l 68 283 l 68 554 l 627 554 l 627 418 l 203 418 z "},"¬":{"ha":694,"x_min":68,"x_max":627,"o":"m 491 418 l 68 418 l 68 554 l 627 554 l 627 283 l 491 283 l 491 418 z "},"ː":{"ha":271,"x_min":68,"x_max":203,"o":"m 68 582 l 68 650 l 203 650 l 203 582 l 136 412 l 68 582 m 203 68 l 203 0 l 68 0 l 68 68 l 136 237 l 203 68 z "},"ˑ":{"ha":271,"x_min":68,"x_max":203,"o":"m 68 582 l 68 650 l 203 650 l 203 582 l 136 412 l 68 582 z "},"‣":{"ha":423,"x_min":68,"x_max":355,"o":"m 68 309 l 68 664 l 355 486 l 68 309 z "},"≠":{"ha":694,"x_min":68,"x_max":627,"o":"m 341 656 l 381 766 l 517 766 l 477 656 l 627 656 l 627 554 l 439 554 l 391 418 l 627 418 l 627 317 l 353 317 l 313 207 l 178 207 l 218 317 l 68 317 l 68 418 l 255 418 l 304 554 l 68 554 l 68 656 l 341 656 z "},"⁋":{"ha":746,"x_min":68,"x_max":678,"o":"m 331 972 q 576 881 475 972 q 678 659 678 789 q 576 438 678 530 q 373 348 490 359 l 373 -136 l 271 -136 l 271 871 l 203 871 l 203 -136 l 102 -136 l 102 871 l 68 871 l 68 972 l 331 972 z "},"¯":{"ha":475,"x_min":64,"x_max":411,"o":"m 411 1074 l 64 1074 l 64 1176 l 411 1176 l 411 1074 z "},"Ā":{"ha":694,"x_min":0,"x_max":694,"o":"m 509 203 l 186 203 l 138 0 l 0 0 l 228 972 l 467 972 l 694 0 l 556 0 l 509 203 m 521 1074 l 174 1074 l 174 1176 l 521 1176 l 521 1074 m 218 339 l 477 339 l 347 894 l 218 339 z "},"ā":{"ha":694,"x_min":0,"x_max":694,"o":"m 509 203 l 186 203 l 138 0 l 0 0 l 228 972 l 467 972 l 694 0 l 556 0 l 509 203 m 521 1074 l 174 1074 l 174 1176 l 521 1176 l 521 1074 m 218 339 l 477 339 l 347 894 l 218 339 z "},"Ē":{"ha":694,"x_min":68,"x_max":627,"o":"m 627 972 l 627 837 l 203 837 l 203 554 l 559 554 l 559 418 l 203 418 l 203 136 l 627 136 l 627 0 l 68 0 l 68 972 l 627 972 m 521 1074 l 174 1074 l 174 1176 l 521 1176 l 521 1074 z "},"ē":{"ha":694,"x_min":68,"x_max":627,"o":"m 627 972 l 627 837 l 203 837 l 203 554 l 559 554 l 559 418 l 203 418 l 203 136 l 627 136 l 627 0 l 68 0 l 68 972 l 627 972 m 521 1074 l 174 1074 l 174 1176 l 521 1176 l 521 1074 z "},"Ī":{"ha":271,"x_min":0,"x_max":271,"o":"m 68 0 l 68 972 l 203 972 l 203 0 l 68 0 m 271 1074 l 0 1074 l 0 1176 l 271 1176 l 271 1074 z "},"ī":{"ha":271,"x_min":0,"x_max":271,"o":"m 68 0 l 68 972 l 203 972 l 203 0 l 68 0 m 271 1074 l 0 1074 l 0 1176 l 271 1176 l 271 1074 z "},"Ō":{"ha":966,"x_min":68,"x_max":898,"o":"m 483 136 q 681 238 599 136 q 762 486 762 341 q 681 734 762 631 q 483 837 599 837 q 285 734 367 837 q 203 486 203 631 q 285 238 203 341 q 483 136 367 136 m 483 -7 q 190 139 311 -7 q 68 486 68 285 q 190 833 68 688 q 483 979 311 979 q 776 833 654 979 q 898 486 898 688 q 776 139 898 285 q 483 -7 654 -7 m 656 1074 l 309 1074 l 309 1176 l 656 1176 l 656 1074 z "},"ō":{"ha":966,"x_min":68,"x_max":898,"o":"m 483 136 q 681 238 599 136 q 762 486 762 341 q 681 734 762 631 q 483 837 599 837 q 285 734 367 837 q 203 486 203 631 q 285 238 203 341 q 483 136 367 136 m 483 -7 q 190 139 311 -7 q 68 486 68 285 q 190 833 68 688 q 483 979 311 979 q 776 833 654 979 q 898 486 898 688 q 776 139 898 285 q 483 -7 654 -7 m 656 1074 l 309 1074 l 309 1176 l 656 1176 l 656 1074 z "},"Ū":{"ha":830,"x_min":68,"x_max":762,"o":"m 627 347 l 627 972 l 762 972 l 762 347 q 661 98 762 203 q 415 -7 559 -7 q 170 98 271 -7 q 68 347 68 203 l 68 972 l 203 972 l 203 347 q 266 198 203 260 q 415 136 328 136 q 565 198 503 136 q 627 347 627 260 m 589 1074 l 241 1074 l 241 1176 l 589 1176 l 589 1074 z "},"ū":{"ha":830,"x_min":68,"x_max":762,"o":"m 627 347 l 627 972 l 762 972 l 762 347 q 661 98 762 203 q 415 -7 559 -7 q 170 98 271 -7 q 68 347 68 203 l 68 972 l 203 972 l 203 347 q 266 198 203 260 q 415 136 328 136 q 565 198 503 136 q 627 347 627 260 m 589 1074 l 241 1074 l 241 1176 l 589 1176 l 589 1074 z "},"Ȳ":{"ha":627,"x_min":34,"x_max":593,"o":"m 245 291 l 34 972 l 172 972 l 313 510 l 454 972 l 593 972 l 381 284 l 381 0 l 245 0 l 245 291 m 487 1074 l 140 1074 l 140 1176 l 487 1176 l 487 1074 z "},"ȳ":{"ha":627,"x_min":34,"x_max":593,"o":"m 245 291 l 34 972 l 172 972 l 313 510 l 454 972 l 593 972 l 381 284 l 381 0 l 245 0 l 245 291 m 487 1074 l 140 1074 l 140 1176 l 487 1176 l 487 1074 z "},"ˇ":{"ha":475,"x_min":26,"x_max":449,"o":"m 184 1040 l 26 1210 l 161 1210 l 237 1125 l 313 1210 l 449 1210 l 290 1040 l 184 1040 z "},"Č":{"ha":746,"x_min":68,"x_max":694,"o":"m 678 235 l 678 56 q 483 -7 590 -7 q 190 139 311 -7 q 68 486 68 285 q 190 833 68 688 q 483 979 311 979 q 678 917 590 979 l 678 737 q 483 837 597 837 q 285 734 367 837 q 203 486 203 631 q 285 238 203 341 q 483 136 367 136 q 678 235 597 136 m 430 1040 l 271 1210 l 407 1210 l 483 1125 l 559 1210 l 694 1210 l 536 1040 l 430 1040 z "},"č":{"ha":746,"x_min":68,"x_max":694,"o":"m 678 235 l 678 56 q 483 -7 590 -7 q 190 139 311 -7 q 68 486 68 285 q 190 833 68 688 q 483 979 311 979 q 678 917 590 979 l 678 737 q 483 837 597 837 q 285 734 367 837 q 203 486 203 631 q 285 238 203 341 q 483 136 367 136 q 678 235 597 136 m 430 1040 l 271 1210 l 407 1210 l 483 1125 l 559 1210 l 694 1210 l 536 1040 l 430 1040 z "},"Ď":{"ha":746,"x_min":68,"x_max":678,"o":"m 263 972 q 556 830 435 972 q 678 486 678 688 q 556 142 678 285 q 263 0 435 0 l 68 0 l 68 972 l 263 972 m 263 837 l 203 837 l 203 136 l 263 136 q 461 238 379 136 q 543 486 543 341 q 461 734 543 631 q 263 837 379 837 m 227 1040 l 68 1210 l 203 1210 l 279 1125 l 355 1210 l 491 1210 l 332 1040 l 227 1040 z "},"ď":{"ha":746,"x_min":68,"x_max":678,"o":"m 263 972 q 556 830 435 972 q 678 486 678 688 q 556 142 678 285 q 263 0 435 0 l 68 0 l 68 972 l 263 972 m 263 837 l 203 837 l 203 136 l 263 136 q 461 238 379 136 q 543 486 543 341 q 461 734 543 631 q 263 837 379 837 m 227 1040 l 68 1210 l 203 1210 l 279 1125 l 355 1210 l 491 1210 l 332 1040 l 227 1040 z "},"Ě":{"ha":694,"x_min":68,"x_max":627,"o":"m 627 972 l 627 837 l 203 837 l 203 554 l 559 554 l 559 418 l 203 418 l 203 136 l 627 136 l 627 0 l 68 0 l 68 972 l 627 972 m 294 1040 l 136 1210 l 271 1210 l 347 1125 l 423 1210 l 559 1210 l 400 1040 l 294 1040 z "},"ě":{"ha":694,"x_min":68,"x_max":627,"o":"m 627 972 l 627 837 l 203 837 l 203 554 l 559 554 l 559 418 l 203 418 l 203 136 l 627 136 l 627 0 l 68 0 l 68 972 l 627 972 m 294 1040 l 136 1210 l 271 1210 l 347 1125 l 423 1210 l 559 1210 l 400 1040 l 294 1040 z "},"Ľ":{"ha":694,"x_min":68,"x_max":627,"o":"m 203 136 l 627 136 l 627 0 l 68 0 l 68 972 l 203 972 l 203 136 m 362 803 l 449 972 l 627 972 l 468 803 l 362 803 z "},"ľ":{"ha":694,"x_min":68,"x_max":627,"o":"m 203 136 l 627 136 l 627 0 l 68 0 l 68 972 l 203 972 l 203 136 m 362 803 l 449 972 l 627 972 l 468 803 l 362 803 z "},"Ň":{"ha":694,"x_min":68,"x_max":627,"o":"m 491 312 l 491 972 l 627 972 l 627 0 l 491 0 l 203 661 l 203 0 l 68 0 l 68 972 l 203 972 l 491 312 m 294 1040 l 136 1210 l 271 1210 l 347 1125 l 423 1210 l 559 1210 l 400 1040 l 294 1040 z "},"ň":{"ha":694,"x_min":68,"x_max":627,"o":"m 491 312 l 491 972 l 627 972 l 627 0 l 491 0 l 203 661 l 203 0 l 68 0 l 68 972 l 203 972 l 491 312 m 294 1040 l 136 1210 l 271 1210 l 347 1125 l 423 1210 l 559 1210 l 400 1040 l 294 1040 z "},"Ř":{"ha":694,"x_min":68,"x_max":627,"o":"m 203 414 l 263 414 q 413 476 351 414 q 475 625 475 538 q 413 775 475 713 q 263 837 351 837 l 203 837 l 203 414 m 263 278 l 203 278 l 203 0 l 68 0 l 68 972 l 263 972 q 509 871 407 972 q 610 625 610 769 q 509 380 610 481 q 480 354 494 366 l 627 0 l 479 0 l 359 290 q 263 278 313 278 m 227 1040 l 68 1210 l 203 1210 l 279 1125 l 355 1210 l 491 1210 l 332 1040 l 227 1040 z "},"ř":{"ha":694,"x_min":68,"x_max":627,"o":"m 203 414 l 263 414 q 413 476 351 414 q 475 625 475 538 q 413 775 475 713 q 263 837 351 837 l 203 837 l 203 414 m 263 278 l 203 278 l 203 0 l 68 0 l 68 972 l 263 972 q 509 871 407 972 q 610 625 610 769 q 509 380 610 481 q 480 354 494 366 l 627 0 l 479 0 l 359 290 q 263 278 313 278 m 227 1040 l 68 1210 l 203 1210 l 279 1125 l 355 1210 l 491 1210 l 332 1040 l 227 1040 z "},"Š":{"ha":796,"x_min":68,"x_max":728,"o":"m 381 418 q 160 499 252 418 q 68 696 68 581 q 160 895 68 810 q 441 979 252 979 q 636 929 578 972 l 636 774 l 635 775 q 441 837 583 830 q 255 795 307 837 q 203 696 203 754 q 255 595 203 637 q 381 554 307 554 q 627 473 525 554 q 728 277 728 392 q 627 78 728 162 q 305 -7 525 -7 q 68 58 149 0 l 68 208 q 305 136 144 142 q 531 177 469 136 q 593 277 593 218 q 531 377 593 336 q 381 418 469 418 m 328 1040 l 170 1210 l 305 1210 l 381 1125 l 457 1210 l 593 1210 l 434 1040 l 328 1040 z "},"š":{"ha":796,"x_min":68,"x_max":728,"o":"m 381 418 q 160 499 252 418 q 68 696 68 581 q 160 895 68 810 q 441 979 252 979 q 636 929 578 972 l 636 774 l 635 775 q 441 837 583 830 q 255 795 307 837 q 203 696 203 754 q 255 595 203 637 q 381 554 307 554 q 627 473 525 554 q 728 277 728 392 q 627 78 728 162 q 305 -7 525 -7 q 68 58 149 0 l 68 208 q 305 136 144 142 q 531 177 469 136 q 593 277 593 218 q 531 377 593 336 q 381 418 469 418 m 328 1040 l 170 1210 l 305 1210 l 381 1125 l 457 1210 l 593 1210 l 434 1040 l 328 1040 z "},"Ť":{"ha":694,"x_min":68,"x_max":627,"o":"m 627 972 l 627 837 l 415 837 l 415 0 l 279 0 l 279 837 l 68 837 l 68 972 l 627 972 m 294 1040 l 136 1210 l 271 1210 l 347 1125 l 423 1210 l 559 1210 l 400 1040 l 294 1040 z "},"ť":{"ha":694,"x_min":68,"x_max":627,"o":"m 627 972 l 627 837 l 415 837 l 415 0 l 279 0 l 279 837 l 68 837 l 68 972 l 627 972 m 294 1040 l 136 1210 l 271 1210 l 347 1125 l 423 1210 l 559 1210 l 400 1040 l 294 1040 z "},"Ž":{"ha":694,"x_min":68,"x_max":627,"o":"m 482 837 l 68 837 l 68 972 l 627 972 l 627 837 l 212 136 l 627 136 l 627 0 l 68 0 l 68 136 l 482 837 m 294 1040 l 136 1210 l 271 1210 l 347 1125 l 423 1210 l 559 1210 l 400 1040 l 294 1040 z "},"ž":{"ha":694,"x_min":68,"x_max":627,"o":"m 482 837 l 68 837 l 68 972 l 627 972 l 627 837 l 212 136 l 627 136 l 627 0 l 68 0 l 68 136 l 482 837 m 294 1040 l 136 1210 l 271 1210 l 347 1125 l 423 1210 l 559 1210 l 400 1040 l 294 1040 z "},"Ǎ":{"ha":694,"x_min":0,"x_max":694,"o":"m 509 203 l 186 203 l 138 0 l 0 0 l 228 972 l 467 972 l 694 0 l 556 0 l 509 203 m 218 339 l 477 339 l 347 894 l 218 339 m 294 1040 l 136 1210 l 271 1210 l 347 1125 l 423 1210 l 559 1210 l 400 1040 l 294 1040 z "},"ǎ":{"ha":694,"x_min":0,"x_max":694,"o":"m 509 203 l 186 203 l 138 0 l 0 0 l 228 972 l 467 972 l 694 0 l 556 0 l 509 203 m 218 339 l 477 339 l 347 894 l 218 339 m 294 1040 l 136 1210 l 271 1210 l 347 1125 l 423 1210 l 559 1210 l 400 1040 l 294 1040 z "},"Ǐ":{"ha":271,"x_min":-76,"x_max":347,"o":"m 68 0 l 68 972 l 203 972 l 203 0 l 68 0 m 83 1040 l -76 1210 l 60 1210 l 136 1125 l 212 1210 l 347 1210 l 189 1040 l 83 1040 z "},"ǐ":{"ha":271,"x_min":-76,"x_max":347,"o":"m 68 0 l 68 972 l 203 972 l 203 0 l 68 0 m 83 1040 l -76 1210 l 60 1210 l 136 1125 l 212 1210 l 347 1210 l 189 1040 l 83 1040 z "},"Ǒ":{"ha":966,"x_min":68,"x_max":898,"o":"m 483 136 q 681 238 599 136 q 762 486 762 341 q 681 734 762 631 q 483 837 599 837 q 285 734 367 837 q 203 486 203 631 q 285 238 203 341 q 483 136 367 136 m 483 -7 q 190 139 311 -7 q 68 486 68 285 q 190 833 68 688 q 483 979 311 979 q 776 833 654 979 q 898 486 898 688 q 776 139 898 285 q 483 -7 654 -7 m 430 1040 l 271 1210 l 407 1210 l 483 1125 l 559 1210 l 694 1210 l 536 1040 l 430 1040 z "},"ǒ":{"ha":966,"x_min":68,"x_max":898,"o":"m 483 136 q 681 238 599 136 q 762 486 762 341 q 681 734 762 631 q 483 837 599 837 q 285 734 367 837 q 203 486 203 631 q 285 238 203 341 q 483 136 367 136 m 483 -7 q 190 139 311 -7 q 68 486 68 285 q 190 833 68 688 q 483 979 311 979 q 776 833 654 979 q 898 486 898 688 q 776 139 898 285 q 483 -7 654 -7 m 430 1040 l 271 1210 l 407 1210 l 483 1125 l 559 1210 l 694 1210 l 536 1040 l 430 1040 z "},"Ǔ":{"ha":830,"x_min":68,"x_max":762,"o":"m 627 347 l 627 972 l 762 972 l 762 347 q 661 98 762 203 q 415 -7 559 -7 q 170 98 271 -7 q 68 347 68 203 l 68 972 l 203 972 l 203 347 q 266 198 203 260 q 415 136 328 136 q 565 198 503 136 q 627 347 627 260 m 362 1040 l 203 1210 l 339 1210 l 415 1125 l 491 1210 l 627 1210 l 468 1040 l 362 1040 z "},"ǔ":{"ha":830,"x_min":68,"x_max":762,"o":"m 627 347 l 627 972 l 762 972 l 762 347 q 661 98 762 203 q 415 -7 559 -7 q 170 98 271 -7 q 68 347 68 203 l 68 972 l 203 972 l 203 347 q 266 198 203 260 q 415 136 328 136 q 565 198 503 136 q 627 347 627 260 m 362 1040 l 203 1210 l 339 1210 l 415 1125 l 491 1210 l 627 1210 l 468 1040 l 362 1040 z "},"Ǧ":{"ha":814,"x_min":68,"x_max":746,"o":"m 610 407 l 475 407 l 475 543 l 746 543 l 746 0 l 483 0 q 190 142 311 0 q 68 486 68 285 q 190 833 68 688 q 483 979 311 979 q 678 917 590 979 l 678 737 q 483 837 597 837 q 285 734 367 837 q 203 486 203 631 q 285 238 203 341 q 483 136 367 136 l 610 136 l 610 407 m 430 1040 l 271 1210 l 407 1210 l 483 1125 l 559 1210 l 694 1210 l 536 1040 l 430 1040 z "},"ǧ":{"ha":814,"x_min":68,"x_max":746,"o":"m 610 407 l 475 407 l 475 543 l 746 543 l 746 0 l 483 0 q 190 142 311 0 q 68 486 68 285 q 190 833 68 688 q 483 979 311 979 q 678 917 590 979 l 678 737 q 483 837 597 837 q 285 734 367 837 q 203 486 203 631 q 285 238 203 341 q 483 136 367 136 l 610 136 l 610 407 m 430 1040 l 271 1210 l 407 1210 l 483 1125 l 559 1210 l 694 1210 l 536 1040 l 430 1040 z "},"Ǩ":{"ha":694,"x_min":68,"x_max":627,"o":"m 304 487 l 479 972 l 627 972 l 427 416 l 627 0 l 479 0 l 315 350 l 203 350 l 203 0 l 68 0 l 68 972 l 203 972 l 203 487 l 304 487 m 294 1040 l 136 1210 l 271 1210 l 347 1125 l 423 1210 l 559 1210 l 400 1040 l 294 1040 z "},"ǩ":{"ha":694,"x_min":68,"x_max":627,"o":"m 304 487 l 479 972 l 627 972 l 427 416 l 627 0 l 479 0 l 315 350 l 203 350 l 203 0 l 68 0 l 68 972 l 203 972 l 203 487 l 304 487 m 294 1040 l 136 1210 l 271 1210 l 347 1125 l 423 1210 l 559 1210 l 400 1040 l 294 1040 z "},"Ȟ":{"ha":694,"x_min":68,"x_max":627,"o":"m 627 0 l 491 0 l 491 418 l 203 418 l 203 0 l 68 0 l 68 972 l 203 972 l 203 554 l 491 554 l 491 972 l 627 972 l 627 0 m 294 1040 l 136 1210 l 271 1210 l 347 1125 l 423 1210 l 559 1210 l 400 1040 l 294 1040 z "},"ȟ":{"ha":694,"x_min":68,"x_max":627,"o":"m 627 0 l 491 0 l 491 418 l 203 418 l 203 0 l 68 0 l 68 972 l 203 972 l 203 554 l 491 554 l 491 972 l 627 972 l 627 0 m 294 1040 l 136 1210 l 271 1210 l 347 1125 l 423 1210 l 559 1210 l 400 1040 l 294 1040 z "},"¸":{"ha":475,"x_min":98,"x_max":376,"o":"m 216 -237 q 98 -191 146 -237 l 178 -111 q 229 -129 196 -129 q 285 -87 285 -129 q 248 -1 285 -38 q 181 61 220 27 l 195 102 q 325 27 273 88 q 376 -95 376 -33 q 376 -111 376 -103 q 338 -196 376 -155 q 227 -237 300 -237 l 216 -237 z "},"Ç":{"ha":746,"x_min":68,"x_max":678,"o":"m 458 -6 q 190 139 302 4 q 68 486 68 285 q 190 833 68 688 q 483 979 311 979 q 678 917 590 979 l 678 737 q 483 837 597 837 q 285 734 367 837 q 203 486 203 631 q 285 238 203 341 q 483 136 367 136 q 678 235 597 136 l 678 56 q 550 0 618 14 q 581 -95 581 -47 q 581 -111 581 -103 q 543 -196 581 -155 q 432 -237 505 -237 l 421 -237 q 303 -191 351 -237 l 383 -111 q 433 -129 401 -129 q 490 -87 490 -129 q 458 -6 490 -41 z "},"ç":{"ha":746,"x_min":68,"x_max":678,"o":"m 458 -6 q 190 139 302 4 q 68 486 68 285 q 190 833 68 688 q 483 979 311 979 q 678 917 590 979 l 678 737 q 483 837 597 837 q 285 734 367 837 q 203 486 203 631 q 285 238 203 341 q 483 136 367 136 q 678 235 597 136 l 678 56 q 550 0 618 14 q 581 -95 581 -47 q 581 -111 581 -103 q 543 -196 581 -155 q 432 -237 505 -237 l 421 -237 q 303 -191 351 -237 l 383 -111 q 433 -129 401 -129 q 490 -87 490 -129 q 458 -6 490 -41 z "},"Ģ":{"ha":814,"x_min":68,"x_max":746,"o":"m 610 407 l 475 407 l 475 543 l 746 543 l 746 0 l 483 0 q 190 142 311 0 q 68 486 68 285 q 190 833 68 688 q 483 979 311 979 q 678 917 590 979 l 678 737 q 483 837 597 837 q 285 734 367 837 q 203 486 203 631 q 285 238 203 341 q 483 136 367 136 l 610 136 l 610 407 m 351 -237 l 437 -68 l 615 -68 l 456 -237 l 351 -237 z "},"ģ":{"ha":814,"x_min":68,"x_max":746,"o":"m 610 407 l 475 407 l 475 543 l 746 543 l 746 0 l 483 0 q 190 142 311 0 q 68 486 68 285 q 190 833 68 688 q 483 979 311 979 q 678 917 590 979 l 678 737 q 483 837 597 837 q 285 734 367 837 q 203 486 203 631 q 285 238 203 341 q 483 136 367 136 l 610 136 l 610 407 m 351 -237 l 437 -68 l 615 -68 l 456 -237 l 351 -237 z "},"Ķ":{"ha":694,"x_min":68,"x_max":627,"o":"m 304 487 l 479 972 l 627 972 l 427 416 l 627 0 l 479 0 l 315 350 l 203 350 l 203 0 l 68 0 l 68 972 l 203 972 l 203 487 l 304 487 m 181 -237 l 268 -68 l 446 -68 l 287 -237 l 181 -237 z "},"ķ":{"ha":694,"x_min":68,"x_max":627,"o":"m 304 487 l 479 972 l 627 972 l 427 416 l 627 0 l 479 0 l 315 350 l 203 350 l 203 0 l 68 0 l 68 972 l 203 972 l 203 487 l 304 487 m 181 -237 l 268 -68 l 446 -68 l 287 -237 l 181 -237 z "},"Ļ":{"ha":694,"x_min":68,"x_max":627,"o":"m 68 972 l 203 972 l 203 136 l 627 136 l 627 0 l 68 0 l 68 972 m 215 -237 l 302 -68 l 479 -68 l 321 -237 l 215 -237 z "},"ļ":{"ha":694,"x_min":68,"x_max":627,"o":"m 68 972 l 203 972 l 203 136 l 627 136 l 627 0 l 68 0 l 68 972 m 215 -237 l 302 -68 l 479 -68 l 321 -237 l 215 -237 z "},"Ņ":{"ha":694,"x_min":68,"x_max":627,"o":"m 491 312 l 491 972 l 627 972 l 627 0 l 491 0 l 203 661 l 203 0 l 68 0 l 68 972 l 203 972 l 491 312 m 181 -237 l 268 -68 l 446 -68 l 287 -237 l 181 -237 z "},"ņ":{"ha":694,"x_min":68,"x_max":627,"o":"m 491 312 l 491 972 l 627 972 l 627 0 l 491 0 l 203 661 l 203 0 l 68 0 l 68 972 l 203 972 l 491 312 m 181 -237 l 268 -68 l 446 -68 l 287 -237 l 181 -237 z "},"Ŗ":{"ha":694,"x_min":68,"x_max":627,"o":"m 203 414 l 263 414 q 413 476 351 414 q 475 625 475 538 q 413 775 475 713 q 263 837 351 837 l 203 837 l 203 414 m 263 278 l 203 278 l 203 0 l 68 0 l 68 972 l 263 972 q 509 871 407 972 q 610 625 610 769 q 509 380 610 481 q 480 354 494 366 l 627 0 l 479 0 l 359 290 q 263 278 313 278 m 181 -237 l 268 -68 l 446 -68 l 287 -237 l 181 -237 z "},"ŗ":{"ha":694,"x_min":68,"x_max":627,"o":"m 203 414 l 263 414 q 413 476 351 414 q 475 625 475 538 q 413 775 475 713 q 263 837 351 837 l 203 837 l 203 414 m 263 278 l 203 278 l 203 0 l 68 0 l 68 972 l 263 972 q 509 871 407 972 q 610 625 610 769 q 509 380 610 481 q 480 354 494 366 l 627 0 l 479 0 l 359 290 q 263 278 313 278 m 181 -237 l 268 -68 l 446 -68 l 287 -237 l 181 -237 z "},"Ş":{"ha":796,"x_min":68,"x_max":728,"o":"m 356 -5 q 305 -7 332 -7 q 68 58 149 0 l 68 208 q 305 136 144 142 q 531 177 469 136 q 593 277 593 218 q 531 377 593 336 q 381 418 469 418 q 160 499 252 418 q 68 696 68 581 q 160 895 68 810 q 441 979 252 979 q 636 929 578 972 l 636 774 l 635 775 q 441 837 583 830 q 255 795 307 837 q 203 696 203 754 q 255 595 203 637 q 381 554 307 554 q 627 473 525 554 q 728 277 728 392 q 627 78 728 162 q 446 4 561 23 q 479 -95 479 -45 q 479 -111 479 -103 q 441 -196 479 -155 q 330 -237 403 -237 l 319 -237 q 201 -191 249 -237 l 281 -111 q 332 -129 299 -129 q 388 -87 388 -129 q 356 -5 388 -41 z "},"ş":{"ha":796,"x_min":68,"x_max":728,"o":"m 356 -5 q 305 -7 332 -7 q 68 58 149 0 l 68 208 q 305 136 144 142 q 531 177 469 136 q 593 277 593 218 q 531 377 593 336 q 381 418 469 418 q 160 499 252 418 q 68 696 68 581 q 160 895 68 810 q 441 979 252 979 q 636 929 578 972 l 636 774 l 635 775 q 441 837 583 830 q 255 795 307 837 q 203 696 203 754 q 255 595 203 637 q 381 554 307 554 q 627 473 525 554 q 728 277 728 392 q 627 78 728 162 q 446 4 561 23 q 479 -95 479 -45 q 479 -111 479 -103 q 441 -196 479 -155 q 330 -237 403 -237 l 319 -237 q 201 -191 249 -237 l 281 -111 q 332 -129 299 -129 q 388 -87 388 -129 q 356 -5 388 -41 z "},"Ţ":{"ha":694,"x_min":68,"x_max":627,"o":"m 351 0 l 279 0 l 279 837 l 68 837 l 68 972 l 627 972 l 627 837 l 415 837 l 415 41 q 428 28 422 35 q 479 -95 479 -33 q 479 -111 479 -103 q 441 -196 479 -155 q 330 -237 403 -237 l 319 -237 q 201 -191 249 -237 l 281 -111 q 332 -129 299 -129 q 388 -87 388 -129 q 351 -1 388 -38 l 351 0 z "},"ţ":{"ha":694,"x_min":68,"x_max":627,"o":"m 351 0 l 279 0 l 279 837 l 68 837 l 68 972 l 627 972 l 627 837 l 415 837 l 415 41 q 428 28 422 35 q 479 -95 479 -33 q 479 -111 479 -103 q 441 -196 479 -155 q 330 -237 403 -237 l 319 -237 q 201 -191 249 -237 l 281 -111 q 332 -129 299 -129 q 388 -87 388 -129 q 351 -1 388 -38 l 351 0 z "},"Ȩ":{"ha":694,"x_min":68,"x_max":627,"o":"m 351 0 l 68 0 l 68 972 l 627 972 l 627 837 l 203 837 l 203 554 l 559 554 l 559 418 l 203 418 l 203 136 l 627 136 l 627 0 l 448 0 q 479 -95 479 -47 q 479 -111 479 -103 q 441 -196 479 -155 q 330 -237 403 -237 l 319 -237 q 201 -191 249 -237 l 281 -111 q 332 -129 299 -129 q 388 -87 388 -129 q 351 -1 388 -38 l 351 0 z "},"ȩ":{"ha":694,"x_min":68,"x_max":627,"o":"m 351 0 l 68 0 l 68 972 l 627 972 l 627 837 l 203 837 l 203 554 l 559 554 l 559 418 l 203 418 l 203 136 l 627 136 l 627 0 l 448 0 q 479 -95 479 -47 q 479 -111 479 -103 q 441 -196 479 -155 q 330 -237 403 -237 l 319 -237 q 201 -191 249 -237 l 281 -111 q 332 -129 299 -129 q 388 -87 388 -129 q 351 -1 388 -38 l 351 0 z "},"Ḑ":{"ha":746,"x_min":68,"x_max":678,"o":"m 263 972 q 556 830 435 972 q 678 486 678 688 q 556 142 678 285 q 263 0 435 0 l 68 0 l 68 972 l 263 972 m 263 837 l 203 837 l 203 136 l 263 136 q 461 238 379 136 q 543 486 543 341 q 461 734 543 631 q 263 837 379 837 m 102 -237 l 189 -68 l 366 -68 l 208 -237 l 102 -237 z "},"ḑ":{"ha":746,"x_min":68,"x_max":678,"o":"m 263 972 q 556 830 435 972 q 678 486 678 688 q 556 142 678 285 q 263 0 435 0 l 68 0 l 68 972 l 263 972 m 263 837 l 203 837 l 203 136 l 263 136 q 461 238 379 136 q 543 486 543 341 q 461 734 543 631 q 263 837 379 837 m 102 -237 l 189 -68 l 366 -68 l 208 -237 l 102 -237 z "},"Ḩ":{"ha":694,"x_min":0,"x_max":627,"o":"m 149 0 l 68 0 l 68 972 l 203 972 l 203 554 l 491 554 l 491 972 l 627 972 l 627 0 l 491 0 l 491 418 l 203 418 l 203 51 q 227 28 216 40 q 278 -95 278 -33 q 277 -111 278 -103 q 239 -196 277 -155 q 129 -237 201 -237 l 118 -237 q 0 -191 47 -237 l 80 -111 q 130 -129 98 -129 q 186 -87 186 -129 q 150 -1 186 -38 l 149 0 z "},"ḩ":{"ha":694,"x_min":0,"x_max":627,"o":"m 149 0 l 68 0 l 68 972 l 203 972 l 203 554 l 491 554 l 491 972 l 627 972 l 627 0 l 491 0 l 491 418 l 203 418 l 203 51 q 227 28 216 40 q 278 -95 278 -33 q 277 -111 278 -103 q 239 -196 277 -155 q 129 -237 201 -237 l 118 -237 q 0 -191 47 -237 l 80 -111 q 130 -129 98 -129 q 186 -87 186 -129 q 150 -1 186 -38 l 149 0 z "},"Ꞌ":{"ha":339,"x_min":102,"x_max":237,"o":"m 215 271 l 124 271 l 102 650 l 102 972 l 237 972 l 237 650 l 215 271 z "},"ꞌ":{"ha":339,"x_min":102,"x_max":237,"o":"m 215 271 l 124 271 l 102 650 l 102 972 l 237 972 l 237 650 l 215 271 z "},"Ɔ":{"ha":746,"x_min":68,"x_max":678,"o":"m 68 235 q 263 136 149 136 q 461 238 379 136 q 543 486 543 341 q 461 734 543 631 q 263 837 379 837 q 68 737 149 837 l 68 917 q 263 979 156 979 q 556 833 435 979 q 678 486 678 688 q 556 139 678 285 q 263 -7 435 -7 q 68 56 156 -7 l 68 235 z "},"ɔ":{"ha":746,"x_min":68,"x_max":678,"o":"m 68 235 q 263 136 149 136 q 461 238 379 136 q 543 486 543 341 q 461 734 543 631 q 263 837 379 837 q 68 737 149 837 l 68 917 q 263 979 156 979 q 556 833 435 979 q 678 486 678 688 q 556 139 678 285 q 263 -7 435 -7 q 68 56 156 -7 l 68 235 z "},"Ɛ":{"ha":762,"x_min":68,"x_max":694,"o":"m 423 837 q 289 795 341 837 q 237 696 237 754 q 289 595 237 637 q 415 554 341 554 l 491 554 l 491 418 l 415 418 q 266 377 328 418 q 203 277 203 336 q 266 177 203 218 q 423 136 328 136 l 505 136 q 694 208 633 142 l 694 58 q 505 -7 629 0 l 423 -7 q 170 78 271 -7 q 68 277 68 162 q 170 473 68 392 q 199 494 184 485 q 193 500 197 497 q 102 696 102 581 q 194 895 102 810 q 423 979 286 979 l 439 979 q 643 902 585 972 l 643 747 l 641 748 q 439 837 589 830 l 423 837 z "},"ɛ":{"ha":762,"x_min":68,"x_max":694,"o":"m 423 837 q 289 795 341 837 q 237 696 237 754 q 289 595 237 637 q 415 554 341 554 l 491 554 l 491 418 l 415 418 q 266 377 328 418 q 203 277 203 336 q 266 177 203 218 q 423 136 328 136 l 505 136 q 694 208 633 142 l 694 58 q 505 -7 629 0 l 423 -7 q 170 78 271 -7 q 68 277 68 162 q 170 473 68 392 q 199 494 184 485 q 193 500 197 497 q 102 696 102 581 q 194 895 102 810 q 423 979 286 979 l 439 979 q 643 902 585 972 l 643 747 l 641 748 q 439 837 589 830 l 423 837 z "},"ˆ":{"ha":475,"x_min":26,"x_max":449,"o":"m 184 1210 l 290 1210 l 449 1040 l 313 1040 l 237 1125 l 161 1040 l 26 1040 l 184 1210 z "},"Â":{"ha":694,"x_min":0,"x_max":694,"o":"m 509 203 l 186 203 l 138 0 l 0 0 l 228 972 l 467 972 l 694 0 l 556 0 l 509 203 m 218 339 l 477 339 l 347 894 l 218 339 m 294 1210 l 400 1210 l 559 1040 l 423 1040 l 347 1125 l 271 1040 l 136 1040 l 294 1210 z "},"â":{"ha":694,"x_min":0,"x_max":694,"o":"m 509 203 l 186 203 l 138 0 l 0 0 l 228 972 l 467 972 l 694 0 l 556 0 l 509 203 m 218 339 l 477 339 l 347 894 l 218 339 m 294 1210 l 400 1210 l 559 1040 l 423 1040 l 347 1125 l 271 1040 l 136 1040 l 294 1210 z "},"Ê":{"ha":694,"x_min":68,"x_max":627,"o":"m 627 972 l 627 837 l 203 837 l 203 554 l 559 554 l 559 418 l 203 418 l 203 136 l 627 136 l 627 0 l 68 0 l 68 972 l 627 972 m 294 1210 l 400 1210 l 559 1040 l 423 1040 l 347 1125 l 271 1040 l 136 1040 l 294 1210 z "},"ê":{"ha":694,"x_min":68,"x_max":627,"o":"m 627 972 l 627 837 l 203 837 l 203 554 l 559 554 l 559 418 l 203 418 l 203 136 l 627 136 l 627 0 l 68 0 l 68 972 l 627 972 m 294 1210 l 400 1210 l 559 1040 l 423 1040 l 347 1125 l 271 1040 l 136 1040 l 294 1210 z "},"Î":{"ha":271,"x_min":-76,"x_max":347,"o":"m 68 0 l 68 972 l 203 972 l 203 0 l 68 0 m 83 1210 l 189 1210 l 347 1040 l 212 1040 l 136 1125 l 60 1040 l -76 1040 l 83 1210 z "},"î":{"ha":271,"x_min":-76,"x_max":347,"o":"m 68 0 l 68 972 l 203 972 l 203 0 l 68 0 m 83 1210 l 189 1210 l 347 1040 l 212 1040 l 136 1125 l 60 1040 l -76 1040 l 83 1210 z "},"Ô":{"ha":966,"x_min":68,"x_max":898,"o":"m 483 136 q 681 238 599 136 q 762 486 762 341 q 681 734 762 631 q 483 837 599 837 q 285 734 367 837 q 203 486 203 631 q 285 238 203 341 q 483 136 367 136 m 483 -7 q 190 139 311 -7 q 68 486 68 285 q 190 833 68 688 q 483 979 311 979 q 776 833 654 979 q 898 486 898 688 q 776 139 898 285 q 483 -7 654 -7 m 430 1210 l 536 1210 l 694 1040 l 559 1040 l 483 1125 l 407 1040 l 271 1040 l 430 1210 z "},"ô":{"ha":966,"x_min":68,"x_max":898,"o":"m 483 136 q 681 238 599 136 q 762 486 762 341 q 681 734 762 631 q 483 837 599 837 q 285 734 367 837 q 203 486 203 631 q 285 238 203 341 q 483 136 367 136 m 483 -7 q 190 139 311 -7 q 68 486 68 285 q 190 833 68 688 q 483 979 311 979 q 776 833 654 979 q 898 486 898 688 q 776 139 898 285 q 483 -7 654 -7 m 430 1210 l 536 1210 l 694 1040 l 559 1040 l 483 1125 l 407 1040 l 271 1040 l 430 1210 z "},"Û":{"ha":830,"x_min":68,"x_max":762,"o":"m 627 347 l 627 972 l 762 972 l 762 347 q 661 98 762 203 q 415 -7 559 -7 q 170 98 271 -7 q 68 347 68 203 l 68 972 l 203 972 l 203 347 q 266 198 203 260 q 415 136 328 136 q 565 198 503 136 q 627 347 627 260 m 362 1210 l 468 1210 l 627 1040 l 491 1040 l 415 1125 l 339 1040 l 203 1040 l 362 1210 z "},"û":{"ha":830,"x_min":68,"x_max":762,"o":"m 627 347 l 627 972 l 762 972 l 762 347 q 661 98 762 203 q 415 -7 559 -7 q 170 98 271 -7 q 68 347 68 203 l 68 972 l 203 972 l 203 347 q 266 198 203 260 q 415 136 328 136 q 565 198 503 136 q 627 347 627 260 m 362 1210 l 468 1210 l 627 1040 l 491 1040 l 415 1125 l 339 1040 l 203 1040 l 362 1210 z "},"Ĉ":{"ha":746,"x_min":68,"x_max":694,"o":"m 678 235 l 678 56 q 483 -7 590 -7 q 190 139 311 -7 q 68 486 68 285 q 190 833 68 688 q 483 979 311 979 q 678 917 590 979 l 678 737 q 483 837 597 837 q 285 734 367 837 q 203 486 203 631 q 285 238 203 341 q 483 136 367 136 q 678 235 597 136 m 430 1210 l 536 1210 l 694 1040 l 559 1040 l 483 1125 l 407 1040 l 271 1040 l 430 1210 z "},"ĉ":{"ha":746,"x_min":68,"x_max":694,"o":"m 678 235 l 678 56 q 483 -7 590 -7 q 190 139 311 -7 q 68 486 68 285 q 190 833 68 688 q 483 979 311 979 q 678 917 590 979 l 678 737 q 483 837 597 837 q 285 734 367 837 q 203 486 203 631 q 285 238 203 341 q 483 136 367 136 q 678 235 597 136 m 430 1210 l 536 1210 l 694 1040 l 559 1040 l 483 1125 l 407 1040 l 271 1040 l 430 1210 z "},"Ĝ":{"ha":814,"x_min":68,"x_max":746,"o":"m 610 407 l 475 407 l 475 543 l 746 543 l 746 0 l 483 0 q 190 142 311 0 q 68 486 68 285 q 190 833 68 688 q 483 979 311 979 q 678 917 590 979 l 678 737 q 483 837 597 837 q 285 734 367 837 q 203 486 203 631 q 285 238 203 341 q 483 136 367 136 l 610 136 l 610 407 m 430 1210 l 536 1210 l 694 1040 l 559 1040 l 483 1125 l 407 1040 l 271 1040 l 430 1210 z "},"ĝ":{"ha":814,"x_min":68,"x_max":746,"o":"m 610 407 l 475 407 l 475 543 l 746 543 l 746 0 l 483 0 q 190 142 311 0 q 68 486 68 285 q 190 833 68 688 q 483 979 311 979 q 678 917 590 979 l 678 737 q 483 837 597 837 q 285 734 367 837 q 203 486 203 631 q 285 238 203 341 q 483 136 367 136 l 610 136 l 610 407 m 430 1210 l 536 1210 l 694 1040 l 559 1040 l 483 1125 l 407 1040 l 271 1040 l 430 1210 z "},"Ĥ":{"ha":694,"x_min":68,"x_max":627,"o":"m 627 0 l 491 0 l 491 418 l 203 418 l 203 0 l 68 0 l 68 972 l 203 972 l 203 554 l 491 554 l 491 972 l 627 972 l 627 0 m 294 1210 l 400 1210 l 559 1040 l 423 1040 l 347 1125 l 271 1040 l 136 1040 l 294 1210 z "},"ĥ":{"ha":694,"x_min":68,"x_max":627,"o":"m 627 0 l 491 0 l 491 418 l 203 418 l 203 0 l 68 0 l 68 972 l 203 972 l 203 554 l 491 554 l 491 972 l 627 972 l 627 0 m 294 1210 l 400 1210 l 559 1040 l 423 1040 l 347 1125 l 271 1040 l 136 1040 l 294 1210 z "},"Ĵ":{"ha":610,"x_min":68,"x_max":686,"o":"m 422 1210 l 528 1210 l 686 1040 l 551 1040 l 475 1125 l 399 1040 l 263 1040 l 422 1210 m 263 -7 q 68 58 138 0 l 68 208 q 263 136 134 142 q 365 178 323 136 q 407 279 407 220 l 407 972 l 543 972 l 543 279 q 461 78 543 163 q 263 -7 379 -7 z "},"ĵ":{"ha":610,"x_min":68,"x_max":686,"o":"m 422 1210 l 528 1210 l 686 1040 l 551 1040 l 475 1125 l 399 1040 l 263 1040 l 422 1210 m 263 -7 q 68 58 138 0 l 68 208 q 263 136 134 142 q 365 178 323 136 q 407 279 407 220 l 407 972 l 543 972 l 543 279 q 461 78 543 163 q 263 -7 379 -7 z "},"Ŝ":{"ha":796,"x_min":68,"x_max":728,"o":"m 381 418 q 160 499 252 418 q 68 696 68 581 q 160 895 68 810 q 441 979 252 979 q 636 929 578 972 l 636 774 l 635 775 q 441 837 583 830 q 255 795 307 837 q 203 696 203 754 q 255 595 203 637 q 381 554 307 554 q 627 473 525 554 q 728 277 728 392 q 627 78 728 162 q 305 -7 525 -7 q 68 58 149 0 l 68 208 q 305 136 144 142 q 531 177 469 136 q 593 277 593 218 q 531 377 593 336 q 381 418 469 418 m 328 1210 l 434 1210 l 593 1040 l 457 1040 l 381 1125 l 305 1040 l 170 1040 l 328 1210 z "},"ŝ":{"ha":796,"x_min":68,"x_max":728,"o":"m 381 418 q 160 499 252 418 q 68 696 68 581 q 160 895 68 810 q 441 979 252 979 q 636 929 578 972 l 636 774 l 635 775 q 441 837 583 830 q 255 795 307 837 q 203 696 203 754 q 255 595 203 637 q 381 554 307 554 q 627 473 525 554 q 728 277 728 392 q 627 78 728 162 q 305 -7 525 -7 q 68 58 149 0 l 68 208 q 305 136 144 142 q 531 177 469 136 q 593 277 593 218 q 531 377 593 336 q 381 418 469 418 m 328 1210 l 434 1210 l 593 1040 l 457 1040 l 381 1125 l 305 1040 l 170 1040 l 328 1210 z "},"Ŵ":{"ha":981,"x_min":34,"x_max":947,"o":"m 724 144 l 808 972 l 947 972 l 848 0 l 615 0 l 490 625 l 366 0 l 134 0 l 34 972 l 172 972 l 256 144 l 421 972 l 559 972 l 724 144 m 437 1210 l 543 1210 l 702 1040 l 566 1040 l 490 1125 l 414 1040 l 279 1040 l 437 1210 z "},"ŵ":{"ha":981,"x_min":34,"x_max":947,"o":"m 724 144 l 808 972 l 947 972 l 848 0 l 615 0 l 490 625 l 366 0 l 134 0 l 34 972 l 172 972 l 256 144 l 421 972 l 559 972 l 724 144 m 437 1210 l 543 1210 l 702 1040 l 566 1040 l 490 1125 l 414 1040 l 279 1040 l 437 1210 z "},"Ŷ":{"ha":627,"x_min":34,"x_max":593,"o":"m 245 291 l 34 972 l 172 972 l 313 510 l 454 972 l 593 972 l 381 284 l 381 0 l 245 0 l 245 291 m 260 1210 l 366 1210 l 525 1040 l 389 1040 l 313 1125 l 237 1040 l 102 1040 l 260 1210 z "},"ŷ":{"ha":627,"x_min":34,"x_max":593,"o":"m 245 291 l 34 972 l 172 972 l 313 510 l 454 972 l 593 972 l 381 284 l 381 0 l 245 0 l 245 291 m 260 1210 l 366 1210 l 525 1040 l 389 1040 l 313 1125 l 237 1040 l 102 1040 l 260 1210 z "},"Ẑ":{"ha":694,"x_min":68,"x_max":627,"o":"m 482 837 l 68 837 l 68 972 l 627 972 l 627 837 l 212 136 l 627 136 l 627 0 l 68 0 l 68 136 l 482 837 m 294 1210 l 400 1210 l 559 1040 l 423 1040 l 347 1125 l 271 1040 l 136 1040 l 294 1210 z "},"ẑ":{"ha":694,"x_min":68,"x_max":627,"o":"m 482 837 l 68 837 l 68 972 l 627 972 l 627 837 l 212 136 l 627 136 l 627 0 l 68 0 l 68 136 l 482 837 m 294 1210 l 400 1210 l 559 1040 l 423 1040 l 347 1125 l 271 1040 l 136 1040 l 294 1210 z "},"¨":{"ha":475,"x_min":51,"x_max":424,"o":"m 186 1074 l 51 1074 l 51 1176 l 186 1176 l 186 1074 m 424 1074 l 288 1074 l 288 1176 l 424 1176 l 424 1074 z "},"Ä":{"ha":694,"x_min":0,"x_max":694,"o":"m 509 203 l 186 203 l 138 0 l 0 0 l 228 972 l 467 972 l 694 0 l 556 0 l 509 203 m 218 339 l 477 339 l 347 894 l 218 339 m 296 1074 l 161 1074 l 161 1176 l 296 1176 l 296 1074 m 534 1074 l 398 1074 l 398 1176 l 534 1176 l 534 1074 z "},"ä":{"ha":694,"x_min":0,"x_max":694,"o":"m 509 203 l 186 203 l 138 0 l 0 0 l 228 972 l 467 972 l 694 0 l 556 0 l 509 203 m 218 339 l 477 339 l 347 894 l 218 339 m 296 1074 l 161 1074 l 161 1176 l 296 1176 l 296 1074 m 534 1074 l 398 1074 l 398 1176 l 534 1176 l 534 1074 z "},"Ë":{"ha":694,"x_min":68,"x_max":627,"o":"m 627 972 l 627 837 l 203 837 l 203 554 l 559 554 l 559 418 l 203 418 l 203 136 l 627 136 l 627 0 l 68 0 l 68 972 l 627 972 m 296 1074 l 161 1074 l 161 1176 l 296 1176 l 296 1074 m 534 1074 l 398 1074 l 398 1176 l 534 1176 l 534 1074 z "},"ë":{"ha":694,"x_min":68,"x_max":627,"o":"m 627 972 l 627 837 l 203 837 l 203 554 l 559 554 l 559 418 l 203 418 l 203 136 l 627 136 l 627 0 l 68 0 l 68 972 l 627 972 m 296 1074 l 161 1074 l 161 1176 l 296 1176 l 296 1074 m 534 1074 l 398 1074 l 398 1176 l 534 1176 l 534 1074 z "},"Ï":{"ha":271,"x_min":-51,"x_max":322,"o":"m 68 0 l 68 972 l 203 972 l 203 0 l 68 0 m 85 1074 l -51 1074 l -51 1176 l 85 1176 l 85 1074 m 322 1074 l 186 1074 l 186 1176 l 322 1176 l 322 1074 z "},"ï":{"ha":271,"x_min":-51,"x_max":322,"o":"m 68 0 l 68 972 l 203 972 l 203 0 l 68 0 m 85 1074 l -51 1074 l -51 1176 l 85 1176 l 85 1074 m 322 1074 l 186 1074 l 186 1176 l 322 1176 l 322 1074 z "},"Ö":{"ha":966,"x_min":68,"x_max":898,"o":"m 483 136 q 681 238 599 136 q 762 486 762 341 q 681 734 762 631 q 483 837 599 837 q 285 734 367 837 q 203 486 203 631 q 285 238 203 341 q 483 136 367 136 m 483 -7 q 190 139 311 -7 q 68 486 68 285 q 190 833 68 688 q 483 979 311 979 q 776 833 654 979 q 898 486 898 688 q 776 139 898 285 q 483 -7 654 -7 m 432 1074 l 296 1074 l 296 1176 l 432 1176 l 432 1074 m 669 1074 l 534 1074 l 534 1176 l 669 1176 l 669 1074 z "},"ö":{"ha":966,"x_min":68,"x_max":898,"o":"m 483 136 q 681 238 599 136 q 762 486 762 341 q 681 734 762 631 q 483 837 599 837 q 285 734 367 837 q 203 486 203 631 q 285 238 203 341 q 483 136 367 136 m 483 -7 q 190 139 311 -7 q 68 486 68 285 q 190 833 68 688 q 483 979 311 979 q 776 833 654 979 q 898 486 898 688 q 776 139 898 285 q 483 -7 654 -7 m 432 1074 l 296 1074 l 296 1176 l 432 1176 l 432 1074 m 669 1074 l 534 1074 l 534 1176 l 669 1176 l 669 1074 z "},"Ü":{"ha":830,"x_min":68,"x_max":762,"o":"m 627 347 l 627 972 l 762 972 l 762 347 q 661 98 762 203 q 415 -7 559 -7 q 170 98 271 -7 q 68 347 68 203 l 68 972 l 203 972 l 203 347 q 266 198 203 260 q 415 136 328 136 q 565 198 503 136 q 627 347 627 260 m 364 1074 l 229 1074 l 229 1176 l 364 1176 l 364 1074 m 602 1074 l 466 1074 l 466 1176 l 602 1176 l 602 1074 z "},"ü":{"ha":830,"x_min":68,"x_max":762,"o":"m 627 347 l 627 972 l 762 972 l 762 347 q 661 98 762 203 q 415 -7 559 -7 q 170 98 271 -7 q 68 347 68 203 l 68 972 l 203 972 l 203 347 q 266 198 203 260 q 415 136 328 136 q 565 198 503 136 q 627 347 627 260 m 364 1074 l 229 1074 l 229 1176 l 364 1176 l 364 1074 m 602 1074 l 466 1074 l 466 1176 l 602 1176 l 602 1074 z "},"Ÿ":{"ha":627,"x_min":34,"x_max":593,"o":"m 245 291 l 34 972 l 172 972 l 313 510 l 454 972 l 593 972 l 381 284 l 381 0 l 245 0 l 245 291 m 262 1074 l 127 1074 l 127 1176 l 262 1176 l 262 1074 m 500 1074 l 364 1074 l 364 1176 l 500 1176 l 500 1074 z "},"ÿ":{"ha":627,"x_min":34,"x_max":593,"o":"m 245 291 l 34 972 l 172 972 l 313 510 l 454 972 l 593 972 l 381 284 l 381 0 l 245 0 l 245 291 m 262 1074 l 127 1074 l 127 1176 l 262 1176 l 262 1074 m 500 1074 l 364 1074 l 364 1176 l 500 1176 l 500 1074 z "},"˙":{"ha":475,"x_min":170,"x_max":305,"o":"m 305 1074 l 170 1074 l 170 1176 l 305 1176 l 305 1074 z "},"Ċ":{"ha":746,"x_min":68,"x_max":678,"o":"m 678 235 l 678 56 q 483 -7 590 -7 q 190 139 311 -7 q 68 486 68 285 q 190 833 68 688 q 483 979 311 979 q 678 917 590 979 l 678 737 q 483 837 597 837 q 285 734 367 837 q 203 486 203 631 q 285 238 203 341 q 483 136 367 136 q 678 235 597 136 m 551 1074 l 415 1074 l 415 1176 l 551 1176 l 551 1074 z "},"ċ":{"ha":746,"x_min":68,"x_max":678,"o":"m 678 235 l 678 56 q 483 -7 590 -7 q 190 139 311 -7 q 68 486 68 285 q 190 833 68 688 q 483 979 311 979 q 678 917 590 979 l 678 737 q 483 837 597 837 q 285 734 367 837 q 203 486 203 631 q 285 238 203 341 q 483 136 367 136 q 678 235 597 136 m 551 1074 l 415 1074 l 415 1176 l 551 1176 l 551 1074 z "},"Ė":{"ha":694,"x_min":68,"x_max":627,"o":"m 627 972 l 627 837 l 203 837 l 203 554 l 559 554 l 559 418 l 203 418 l 203 136 l 627 136 l 627 0 l 68 0 l 68 972 l 627 972 m 415 1074 l 279 1074 l 279 1176 l 415 1176 l 415 1074 z "},"ė":{"ha":694,"x_min":68,"x_max":627,"o":"m 627 972 l 627 837 l 203 837 l 203 554 l 559 554 l 559 418 l 203 418 l 203 136 l 627 136 l 627 0 l 68 0 l 68 972 l 627 972 m 415 1074 l 279 1074 l 279 1176 l 415 1176 l 415 1074 z "},"Ġ":{"ha":814,"x_min":68,"x_max":746,"o":"m 610 407 l 475 407 l 475 543 l 746 543 l 746 0 l 483 0 q 190 142 311 0 q 68 486 68 285 q 190 833 68 688 q 483 979 311 979 q 678 917 590 979 l 678 737 q 483 837 597 837 q 285 734 367 837 q 203 486 203 631 q 285 238 203 341 q 483 136 367 136 l 610 136 l 610 407 m 551 1074 l 415 1074 l 415 1176 l 551 1176 l 551 1074 z "},"ġ":{"ha":814,"x_min":68,"x_max":746,"o":"m 610 407 l 475 407 l 475 543 l 746 543 l 746 0 l 483 0 q 190 142 311 0 q 68 486 68 285 q 190 833 68 688 q 483 979 311 979 q 678 917 590 979 l 678 737 q 483 837 597 837 q 285 734 367 837 q 203 486 203 631 q 285 238 203 341 q 483 136 367 136 l 610 136 l 610 407 m 551 1074 l 415 1074 l 415 1176 l 551 1176 l 551 1074 z "},"İ":{"ha":271,"x_min":68,"x_max":203,"o":"m 68 0 l 68 972 l 203 972 l 203 0 l 68 0 m 203 1074 l 68 1074 l 68 1176 l 203 1176 l 203 1074 z "},"ı":{"ha":271,"x_min":68,"x_max":203,"o":"m 68 0 l 68 972 l 203 972 l 203 0 l 68 0 m 203 1074 l 68 1074 l 68 1176 l 203 1176 l 203 1074 z "},"Ż":{"ha":694,"x_min":68,"x_max":627,"o":"m 482 837 l 68 837 l 68 972 l 627 972 l 627 837 l 212 136 l 627 136 l 627 0 l 68 0 l 68 136 l 482 837 m 415 1074 l 279 1074 l 279 1176 l 415 1176 l 415 1074 z "},"ż":{"ha":694,"x_min":68,"x_max":627,"o":"m 482 837 l 68 837 l 68 972 l 627 972 l 627 837 l 212 136 l 627 136 l 627 0 l 68 0 l 68 136 l 482 837 m 415 1074 l 279 1074 l 279 1176 l 415 1176 l 415 1074 z "},"Ȧ":{"ha":694,"x_min":0,"x_max":694,"o":"m 509 203 l 186 203 l 138 0 l 0 0 l 228 972 l 467 972 l 694 0 l 556 0 l 509 203 m 218 339 l 477 339 l 347 894 l 218 339 m 415 1074 l 279 1074 l 279 1176 l 415 1176 l 415 1074 z "},"ȧ":{"ha":694,"x_min":0,"x_max":694,"o":"m 509 203 l 186 203 l 138 0 l 0 0 l 228 972 l 467 972 l 694 0 l 556 0 l 509 203 m 218 339 l 477 339 l 347 894 l 218 339 m 415 1074 l 279 1074 l 279 1176 l 415 1176 l 415 1074 z "},"Ȯ":{"ha":966,"x_min":68,"x_max":898,"o":"m 483 136 q 681 238 599 136 q 762 486 762 341 q 681 734 762 631 q 483 837 599 837 q 285 734 367 837 q 203 486 203 631 q 285 238 203 341 q 483 136 367 136 m 483 -7 q 190 139 311 -7 q 68 486 68 285 q 190 833 68 688 q 483 979 311 979 q 776 833 654 979 q 898 486 898 688 q 776 139 898 285 q 483 -7 654 -7 m 551 1074 l 415 1074 l 415 1176 l 551 1176 l 551 1074 z "},"ȯ":{"ha":966,"x_min":68,"x_max":898,"o":"m 483 136 q 681 238 599 136 q 762 486 762 341 q 681 734 762 631 q 483 837 599 837 q 285 734 367 837 q 203 486 203 631 q 285 238 203 341 q 483 136 367 136 m 483 -7 q 190 139 311 -7 q 68 486 68 285 q 190 833 68 688 q 483 979 311 979 q 776 833 654 979 q 898 486 898 688 q 776 139 898 285 q 483 -7 654 -7 m 551 1074 l 415 1074 l 415 1176 l 551 1176 l 551 1074 z "},"Ṅ":{"ha":694,"x_min":68,"x_max":627,"o":"m 491 312 l 491 972 l 627 972 l 627 0 l 491 0 l 203 661 l 203 0 l 68 0 l 68 972 l 203 972 l 491 312 m 415 1074 l 279 1074 l 279 1176 l 415 1176 l 415 1074 z "},"ṅ":{"ha":694,"x_min":68,"x_max":627,"o":"m 491 312 l 491 972 l 627 972 l 627 0 l 491 0 l 203 661 l 203 0 l 68 0 l 68 972 l 203 972 l 491 312 m 415 1074 l 279 1074 l 279 1176 l 415 1176 l 415 1074 z "},"À":{"ha":694,"x_min":0,"x_max":694,"o":"m 509 203 l 186 203 l 138 0 l 0 0 l 228 972 l 467 972 l 694 0 l 556 0 l 509 203 m 218 339 l 477 339 l 347 894 l 218 339 m 400 1040 l 294 1040 l 136 1210 l 313 1210 l 400 1040 z "},"à":{"ha":694,"x_min":0,"x_max":694,"o":"m 509 203 l 186 203 l 138 0 l 0 0 l 228 972 l 467 972 l 694 0 l 556 0 l 509 203 m 218 339 l 477 339 l 347 894 l 218 339 m 400 1040 l 294 1040 l 136 1210 l 313 1210 l 400 1040 z "},"Á":{"ha":694,"x_min":0,"x_max":694,"o":"m 509 203 l 186 203 l 138 0 l 0 0 l 228 972 l 467 972 l 694 0 l 556 0 l 509 203 m 218 339 l 477 339 l 347 894 l 218 339 m 294 1040 l 381 1210 l 559 1210 l 400 1040 l 294 1040 z "},"á":{"ha":694,"x_min":0,"x_max":694,"o":"m 509 203 l 186 203 l 138 0 l 0 0 l 228 972 l 467 972 l 694 0 l 556 0 l 509 203 m 218 339 l 477 339 l 347 894 l 218 339 m 294 1040 l 381 1210 l 559 1210 l 400 1040 l 294 1040 z "},"Ã":{"ha":694,"x_min":0,"x_max":694,"o":"m 509 203 l 186 203 l 138 0 l 0 0 l 228 972 l 467 972 l 694 0 l 556 0 l 509 203 m 218 339 l 477 339 l 347 894 l 218 339 m 331 1084 q 294 1106 331 1084 q 221 1128 257 1128 q 159 1120 186 1128 q 136 1107 142 1114 l 136 1199 q 221 1210 176 1210 q 364 1166 290 1210 q 473 1122 437 1122 q 536 1131 509 1122 q 559 1143 552 1136 l 559 1051 q 473 1040 518 1040 q 331 1084 404 1040 z "},"ã":{"ha":694,"x_min":0,"x_max":694,"o":"m 509 203 l 186 203 l 138 0 l 0 0 l 228 972 l 467 972 l 694 0 l 556 0 l 509 203 m 218 339 l 477 339 l 347 894 l 218 339 m 331 1084 q 294 1106 331 1084 q 221 1128 257 1128 q 159 1120 186 1128 q 136 1107 142 1114 l 136 1199 q 221 1210 176 1210 q 364 1166 290 1210 q 473 1122 437 1122 q 536 1131 509 1122 q 559 1143 552 1136 l 559 1051 q 473 1040 518 1040 q 331 1084 404 1040 z "},"Å":{"ha":694,"x_min":0,"x_max":694,"o":"m 347 1096 q 304 1078 322 1096 q 286 1035 286 1061 q 304 991 286 1009 q 347 974 322 974 q 390 991 372 974 q 408 1035 408 1009 q 390 1078 408 1061 q 347 1096 372 1096 m 218 339 l 477 339 l 347 894 l 218 339 m 218 930 q 178 1040 178 975 q 228 1161 178 1113 q 347 1210 277 1210 q 467 1161 417 1210 q 517 1040 517 1113 q 477 930 517 975 l 694 0 l 556 0 l 509 203 l 186 203 l 138 0 l 0 0 l 218 930 z "},"å":{"ha":694,"x_min":0,"x_max":694,"o":"m 347 1096 q 304 1078 322 1096 q 286 1035 286 1061 q 304 991 286 1009 q 347 974 322 974 q 390 991 372 974 q 408 1035 408 1009 q 390 1078 408 1061 q 347 1096 372 1096 m 218 339 l 477 339 l 347 894 l 218 339 m 218 930 q 178 1040 178 975 q 228 1161 178 1113 q 347 1210 277 1210 q 467 1161 417 1210 q 517 1040 517 1113 q 477 930 517 975 l 694 0 l 556 0 l 509 203 l 186 203 l 138 0 l 0 0 l 218 930 z "},"Æ":{"ha":898,"x_min":0,"x_max":830,"o":"m 830 972 l 830 837 l 543 837 l 543 554 l 762 554 l 762 418 l 543 418 l 543 136 l 830 136 l 830 0 l 407 0 l 407 203 l 186 203 l 138 0 l 0 0 l 228 972 l 830 972 m 407 339 l 407 837 l 334 837 l 218 339 l 407 339 z "},"æ":{"ha":898,"x_min":0,"x_max":830,"o":"m 830 972 l 830 837 l 543 837 l 543 554 l 762 554 l 762 418 l 543 418 l 543 136 l 830 136 l 830 0 l 407 0 l 407 203 l 186 203 l 138 0 l 0 0 l 228 972 l 830 972 m 407 339 l 407 837 l 334 837 l 218 339 l 407 339 z "},"È":{"ha":694,"x_min":68,"x_max":627,"o":"m 627 972 l 627 837 l 203 837 l 203 554 l 559 554 l 559 418 l 203 418 l 203 136 l 627 136 l 627 0 l 68 0 l 68 972 l 627 972 m 400 1040 l 294 1040 l 136 1210 l 313 1210 l 400 1040 z "},"è":{"ha":694,"x_min":68,"x_max":627,"o":"m 627 972 l 627 837 l 203 837 l 203 554 l 559 554 l 559 418 l 203 418 l 203 136 l 627 136 l 627 0 l 68 0 l 68 972 l 627 972 m 400 1040 l 294 1040 l 136 1210 l 313 1210 l 400 1040 z "},"É":{"ha":694,"x_min":68,"x_max":627,"o":"m 627 972 l 627 837 l 203 837 l 203 554 l 559 554 l 559 418 l 203 418 l 203 136 l 627 136 l 627 0 l 68 0 l 68 972 l 627 972 m 294 1040 l 381 1210 l 559 1210 l 400 1040 l 294 1040 z "},"é":{"ha":694,"x_min":68,"x_max":627,"o":"m 627 972 l 627 837 l 203 837 l 203 554 l 559 554 l 559 418 l 203 418 l 203 136 l 627 136 l 627 0 l 68 0 l 68 972 l 627 972 m 294 1040 l 381 1210 l 559 1210 l 400 1040 l 294 1040 z "},"Ì":{"ha":271,"x_min":-76,"x_max":203,"o":"m 68 0 l 68 972 l 203 972 l 203 0 l 68 0 m 189 1040 l 83 1040 l -76 1210 l 102 1210 l 189 1040 z "},"ì":{"ha":271,"x_min":-76,"x_max":203,"o":"m 68 0 l 68 972 l 203 972 l 203 0 l 68 0 m 189 1040 l 83 1040 l -76 1210 l 102 1210 l 189 1040 z "},"Í":{"ha":271,"x_min":68,"x_max":347,"o":"m 68 0 l 68 972 l 203 972 l 203 0 l 68 0 m 83 1040 l 170 1210 l 347 1210 l 189 1040 l 83 1040 z "},"í":{"ha":271,"x_min":68,"x_max":347,"o":"m 68 0 l 68 972 l 203 972 l 203 0 l 68 0 m 83 1040 l 170 1210 l 347 1210 l 189 1040 l 83 1040 z "},"Ñ":{"ha":694,"x_min":68,"x_max":627,"o":"m 491 312 l 491 972 l 627 972 l 627 0 l 491 0 l 203 661 l 203 0 l 68 0 l 68 972 l 203 972 l 491 312 m 331 1084 q 294 1106 331 1084 q 221 1128 257 1128 q 159 1120 186 1128 q 136 1107 142 1114 l 136 1199 q 221 1210 176 1210 q 364 1166 290 1210 q 473 1122 437 1122 q 536 1131 509 1122 q 559 1143 552 1136 l 559 1051 q 473 1040 518 1040 q 331 1084 404 1040 z "},"ñ":{"ha":694,"x_min":68,"x_max":627,"o":"m 491 312 l 491 972 l 627 972 l 627 0 l 491 0 l 203 661 l 203 0 l 68 0 l 68 972 l 203 972 l 491 312 m 331 1084 q 294 1106 331 1084 q 221 1128 257 1128 q 159 1120 186 1128 q 136 1107 142 1114 l 136 1199 q 221 1210 176 1210 q 364 1166 290 1210 q 473 1122 437 1122 q 536 1131 509 1122 q 559 1143 552 1136 l 559 1051 q 473 1040 518 1040 q 331 1084 404 1040 z "},"Ò":{"ha":966,"x_min":68,"x_max":898,"o":"m 483 136 q 681 238 599 136 q 762 486 762 341 q 681 734 762 631 q 483 837 599 837 q 285 734 367 837 q 203 486 203 631 q 285 238 203 341 q 483 136 367 136 m 483 -7 q 190 139 311 -7 q 68 486 68 285 q 190 833 68 688 q 483 979 311 979 q 776 833 654 979 q 898 486 898 688 q 776 139 898 285 q 483 -7 654 -7 m 536 1040 l 430 1040 l 271 1210 l 449 1210 l 536 1040 z "},"ò":{"ha":966,"x_min":68,"x_max":898,"o":"m 483 136 q 681 238 599 136 q 762 486 762 341 q 681 734 762 631 q 483 837 599 837 q 285 734 367 837 q 203 486 203 631 q 285 238 203 341 q 483 136 367 136 m 483 -7 q 190 139 311 -7 q 68 486 68 285 q 190 833 68 688 q 483 979 311 979 q 776 833 654 979 q 898 486 898 688 q 776 139 898 285 q 483 -7 654 -7 m 536 1040 l 430 1040 l 271 1210 l 449 1210 l 536 1040 z "},"Ó":{"ha":966,"x_min":68,"x_max":898,"o":"m 483 136 q 681 238 599 136 q 762 486 762 341 q 681 734 762 631 q 483 837 599 837 q 285 734 367 837 q 203 486 203 631 q 285 238 203 341 q 483 136 367 136 m 483 -7 q 190 139 311 -7 q 68 486 68 285 q 190 833 68 688 q 483 979 311 979 q 776 833 654 979 q 898 486 898 688 q 776 139 898 285 q 483 -7 654 -7 m 430 1040 l 517 1210 l 694 1210 l 536 1040 l 430 1040 z "},"ó":{"ha":966,"x_min":68,"x_max":898,"o":"m 483 136 q 681 238 599 136 q 762 486 762 341 q 681 734 762 631 q 483 837 599 837 q 285 734 367 837 q 203 486 203 631 q 285 238 203 341 q 483 136 367 136 m 483 -7 q 190 139 311 -7 q 68 486 68 285 q 190 833 68 688 q 483 979 311 979 q 776 833 654 979 q 898 486 898 688 q 776 139 898 285 q 483 -7 654 -7 m 430 1040 l 517 1210 l 694 1210 l 536 1040 l 430 1040 z "},"Õ":{"ha":966,"x_min":68,"x_max":898,"o":"m 483 136 q 681 238 599 136 q 762 486 762 341 q 681 734 762 631 q 483 837 599 837 q 285 734 367 837 q 203 486 203 631 q 285 238 203 341 q 483 136 367 136 m 483 -7 q 190 139 311 -7 q 68 486 68 285 q 190 833 68 688 q 483 979 311 979 q 776 833 654 979 q 898 486 898 688 q 776 139 898 285 q 483 -7 654 -7 m 466 1084 q 429 1106 466 1084 q 357 1128 393 1128 q 294 1120 321 1128 q 271 1107 278 1114 l 271 1199 q 357 1210 312 1210 q 499 1166 426 1210 q 609 1122 573 1122 q 671 1131 644 1122 q 694 1143 688 1136 l 694 1051 q 609 1040 654 1040 q 466 1084 540 1040 z "},"õ":{"ha":966,"x_min":68,"x_max":898,"o":"m 483 136 q 681 238 599 136 q 762 486 762 341 q 681 734 762 631 q 483 837 599 837 q 285 734 367 837 q 203 486 203 631 q 285 238 203 341 q 483 136 367 136 m 483 -7 q 190 139 311 -7 q 68 486 68 285 q 190 833 68 688 q 483 979 311 979 q 776 833 654 979 q 898 486 898 688 q 776 139 898 285 q 483 -7 654 -7 m 466 1084 q 429 1106 466 1084 q 357 1128 393 1128 q 294 1120 321 1128 q 271 1107 278 1114 l 271 1199 q 357 1210 312 1210 q 499 1166 426 1210 q 609 1122 573 1122 q 671 1131 644 1122 q 694 1143 688 1136 l 694 1051 q 609 1040 654 1040 q 466 1084 540 1040 z "},"Ø":{"ha":966,"x_min":68,"x_max":898,"o":"m 602 804 q 483 837 548 837 q 285 734 367 837 q 203 486 203 631 q 275 252 203 350 l 602 804 m 690 721 l 364 168 q 483 136 418 136 q 681 238 599 136 q 762 486 762 341 q 690 721 762 623 m 673 925 l 701 972 l 839 972 l 765 847 q 777 833 770 840 q 898 486 898 688 q 776 139 898 285 q 483 -7 654 -7 q 293 47 378 -7 l 265 0 l 127 0 l 201 125 l 190 139 q 68 486 68 285 q 190 833 68 688 q 483 979 311 979 q 673 925 587 979 z "},"ø":{"ha":966,"x_min":68,"x_max":898,"o":"m 602 804 q 483 837 548 837 q 285 734 367 837 q 203 486 203 631 q 275 252 203 350 l 602 804 m 690 721 l 364 168 q 483 136 418 136 q 681 238 599 136 q 762 486 762 341 q 690 721 762 623 m 673 925 l 701 972 l 839 972 l 765 847 q 777 833 770 840 q 898 486 898 688 q 776 139 898 285 q 483 -7 654 -7 q 293 47 378 -7 l 265 0 l 127 0 l 201 125 l 190 139 q 68 486 68 285 q 190 833 68 688 q 483 979 311 979 q 673 925 587 979 z "},"Œ":{"ha":898,"x_min":68,"x_max":830,"o":"m 475 972 l 830 972 l 830 837 l 543 837 l 543 554 l 762 554 l 762 418 l 543 418 l 543 136 l 830 136 l 830 0 l 475 0 q 190 139 309 3 q 68 486 68 285 q 190 833 68 688 q 475 972 309 969 m 407 148 l 407 825 q 286 734 339 802 q 203 486 203 631 q 286 239 203 341 q 407 148 339 171 z "},"œ":{"ha":898,"x_min":68,"x_max":830,"o":"m 475 972 l 830 972 l 830 837 l 543 837 l 543 554 l 762 554 l 762 418 l 543 418 l 543 136 l 830 136 l 830 0 l 475 0 q 190 139 309 3 q 68 486 68 285 q 190 833 68 688 q 475 972 309 969 m 407 148 l 407 825 q 286 734 339 802 q 203 486 203 631 q 286 239 203 341 q 407 148 339 171 z "},"Ù":{"ha":830,"x_min":68,"x_max":762,"o":"m 627 347 l 627 972 l 762 972 l 762 347 q 661 98 762 203 q 415 -7 559 -7 q 170 98 271 -7 q 68 347 68 203 l 68 972 l 203 972 l 203 347 q 266 198 203 260 q 415 136 328 136 q 565 198 503 136 q 627 347 627 260 m 468 1040 l 362 1040 l 203 1210 l 381 1210 l 468 1040 z "},"ù":{"ha":830,"x_min":68,"x_max":762,"o":"m 627 347 l 627 972 l 762 972 l 762 347 q 661 98 762 203 q 415 -7 559 -7 q 170 98 271 -7 q 68 347 68 203 l 68 972 l 203 972 l 203 347 q 266 198 203 260 q 415 136 328 136 q 565 198 503 136 q 627 347 627 260 m 468 1040 l 362 1040 l 203 1210 l 381 1210 l 468 1040 z "},"Ú":{"ha":830,"x_min":68,"x_max":762,"o":"m 627 347 l 627 972 l 762 972 l 762 347 q 661 98 762 203 q 415 -7 559 -7 q 170 98 271 -7 q 68 347 68 203 l 68 972 l 203 972 l 203 347 q 266 198 203 260 q 415 136 328 136 q 565 198 503 136 q 627 347 627 260 m 362 1040 l 449 1210 l 627 1210 l 468 1040 l 362 1040 z "},"ú":{"ha":830,"x_min":68,"x_max":762,"o":"m 627 347 l 627 972 l 762 972 l 762 347 q 661 98 762 203 q 415 -7 559 -7 q 170 98 271 -7 q 68 347 68 203 l 68 972 l 203 972 l 203 347 q 266 198 203 260 q 415 136 328 136 q 565 198 503 136 q 627 347 627 260 m 362 1040 l 449 1210 l 627 1210 l 468 1040 l 362 1040 z "},"ẞ":{"ha":746,"x_min":68,"x_max":678,"o":"m 339 136 q 481 177 421 138 q 543 277 543 218 q 481 377 543 336 q 339 418 420 417 l 339 563 q 413 595 380 573 q 475 694 474 636 q 433 795 474 753 q 339 837 393 834 q 245 795 285 834 q 203 693 203 753 l 203 0 l 68 0 l 68 693 q 150 891 68 809 q 339 979 225 973 q 529 891 453 973 q 610 694 610 810 q 507 517 609 592 q 576 474 544 500 q 678 277 678 393 q 576 81 678 162 q 339 -7 477 -5 q 271 13 304 -6 l 271 158 q 339 136 303 136 z "},"ß":{"ha":746,"x_min":68,"x_max":678,"o":"m 339 136 q 481 177 421 138 q 543 277 543 218 q 481 377 543 336 q 339 418 420 417 l 339 563 q 413 595 380 573 q 475 694 474 636 q 433 795 474 753 q 339 837 393 834 q 245 795 285 834 q 203 693 203 753 l 203 0 l 68 0 l 68 693 q 150 891 68 809 q 339 979 225 973 q 529 891 453 973 q 610 694 610 810 q 507 517 609 592 q 576 474 544 500 q 678 277 678 393 q 576 81 678 162 q 339 -7 477 -5 q 271 13 304 -6 l 271 158 q 339 136 303 136 z "},"〒":{"ha":694,"x_min":68,"x_max":627,"o":"m 627 972 l 627 837 l 68 837 l 68 972 l 627 972 m 627 701 l 627 566 l 415 566 l 415 0 l 279 0 l 279 566 l 68 566 l 68 701 l 627 701 z "},"₸":{"ha":694,"x_min":68,"x_max":627,"o":"m 627 972 l 627 837 l 68 837 l 68 972 l 627 972 m 627 769 l 627 633 l 415 633 l 415 0 l 279 0 l 279 633 l 68 633 l 68 769 l 627 769 z "},"«":{"ha":694,"x_min":68,"x_max":627,"o":"m 68 406 l 339 650 l 339 481 l 170 325 l 339 170 l 339 0 l 68 243 l 68 406 m 355 243 l 355 406 l 627 650 l 627 480 l 457 325 l 627 169 l 627 0 l 355 243 z "},"»":{"ha":694,"x_min":68,"x_max":627,"o":"m 627 406 l 627 243 l 355 0 l 355 170 l 525 325 l 355 481 l 355 650 l 627 406 m 339 243 l 68 0 l 68 169 l 237 325 l 68 480 l 68 650 l 339 406 l 339 243 z "},"´":{"ha":407,"x_min":68,"x_max":339,"o":"m 68 701 l 136 972 l 339 972 l 203 701 l 68 701 z "},"ˋ":{"ha":475,"x_min":26,"x_max":290,"o":"m 290 1040 l 184 1040 l 26 1210 l 203 1210 l 290 1040 z "},"ˊ":{"ha":475,"x_min":184,"x_max":449,"o":"m 184 1040 l 271 1210 l 449 1210 l 290 1040 l 184 1040 z "},"˚":{"ha":475,"x_min":68,"x_max":407,"o":"m 298 1035 q 280 1078 298 1061 q 237 1096 262 1096 q 194 1078 212 1096 q 176 1035 176 1061 q 194 991 176 1009 q 237 974 212 974 q 280 991 262 974 q 298 1035 298 1009 m 68 1040 q 118 1161 68 1113 q 237 1210 168 1210 q 357 1161 307 1210 q 407 1040 407 1113 l 407 1029 q 357 908 407 957 q 237 860 307 860 q 118 908 168 860 q 68 1029 68 957 l 68 1040 z "},"ˉ":{"ha":475,"x_min":64,"x_max":411,"o":"m 411 1074 l 64 1074 l 64 1176 l 411 1176 l 411 1074 z "},"Ỳ":{"ha":627,"x_min":34,"x_max":593,"o":"m 245 291 l 34 972 l 172 972 l 313 510 l 454 972 l 593 972 l 381 284 l 381 0 l 245 0 l 245 291 m 366 1040 l 260 1040 l 102 1210 l 279 1210 l 366 1040 z "},"ỳ":{"ha":627,"x_min":34,"x_max":593,"o":"m 245 291 l 34 972 l 172 972 l 313 510 l 454 972 l 593 972 l 381 284 l 381 0 l 245 0 l 245 291 m 366 1040 l 260 1040 l 102 1210 l 279 1210 l 366 1040 z "},"Ý":{"ha":627,"x_min":34,"x_max":593,"o":"m 245 291 l 34 972 l 172 972 l 313 510 l 454 972 l 593 972 l 381 284 l 381 0 l 245 0 l 245 291 m 260 1040 l 347 1210 l 525 1210 l 366 1040 l 260 1040 z "},"ý":{"ha":627,"x_min":34,"x_max":593,"o":"m 245 291 l 34 972 l 172 972 l 313 510 l 454 972 l 593 972 l 381 284 l 381 0 l 245 0 l 245 291 m 260 1040 l 347 1210 l 525 1210 l 366 1040 l 260 1040 z "},"Ĺ":{"ha":694,"x_min":68,"x_max":627,"o":"m 68 972 l 203 972 l 203 136 l 627 136 l 627 0 l 68 0 l 68 972 m 83 1040 l 170 1210 l 347 1210 l 189 1040 l 83 1040 z "},"ĺ":{"ha":694,"x_min":68,"x_max":627,"o":"m 68 972 l 203 972 l 203 136 l 627 136 l 627 0 l 68 0 l 68 972 m 83 1040 l 170 1210 l 347 1210 l 189 1040 l 83 1040 z "},"Ŕ":{"ha":694,"x_min":68,"x_max":627,"o":"m 203 414 l 263 414 q 413 476 351 414 q 475 625 475 538 q 413 775 475 713 q 263 837 351 837 l 203 837 l 203 414 m 263 278 l 203 278 l 203 0 l 68 0 l 68 972 l 263 972 q 509 871 407 972 q 610 625 610 769 q 509 380 610 481 q 480 354 494 366 l 627 0 l 479 0 l 359 290 q 263 278 313 278 m 227 1040 l 313 1210 l 491 1210 l 332 1040 l 227 1040 z "},"ŕ":{"ha":694,"x_min":68,"x_max":627,"o":"m 203 414 l 263 414 q 413 476 351 414 q 475 625 475 538 q 413 775 475 713 q 263 837 351 837 l 203 837 l 203 414 m 263 278 l 203 278 l 203 0 l 68 0 l 68 972 l 263 972 q 509 871 407 972 q 610 625 610 769 q 509 380 610 481 q 480 354 494 366 l 627 0 l 479 0 l 359 290 q 263 278 313 278 m 227 1040 l 313 1210 l 491 1210 l 332 1040 l 227 1040 z "},"Ǹ":{"ha":694,"x_min":68,"x_max":627,"o":"m 491 312 l 491 972 l 627 972 l 627 0 l 491 0 l 203 661 l 203 0 l 68 0 l 68 972 l 203 972 l 491 312 m 400 1040 l 294 1040 l 136 1210 l 313 1210 l 400 1040 z "},"ǹ":{"ha":694,"x_min":68,"x_max":627,"o":"m 491 312 l 491 972 l 627 972 l 627 0 l 491 0 l 203 661 l 203 0 l 68 0 l 68 972 l 203 972 l 491 312 m 400 1040 l 294 1040 l 136 1210 l 313 1210 l 400 1040 z "},"Ń":{"ha":694,"x_min":68,"x_max":627,"o":"m 491 312 l 491 972 l 627 972 l 627 0 l 491 0 l 203 661 l 203 0 l 68 0 l 68 972 l 203 972 l 491 312 m 294 1040 l 381 1210 l 559 1210 l 400 1040 l 294 1040 z "},"ń":{"ha":694,"x_min":68,"x_max":627,"o":"m 491 312 l 491 972 l 627 972 l 627 0 l 491 0 l 203 661 l 203 0 l 68 0 l 68 972 l 203 972 l 491 312 m 294 1040 l 381 1210 l 559 1210 l 400 1040 l 294 1040 z "},"Ů":{"ha":830,"x_min":68,"x_max":762,"o":"m 627 347 l 627 972 l 762 972 l 762 347 q 661 98 762 203 q 415 -7 559 -7 q 170 98 271 -7 q 68 347 68 203 l 68 972 l 203 972 l 203 347 q 266 198 203 260 q 415 136 328 136 q 565 198 503 136 q 627 347 627 260 m 476 1035 q 458 1078 476 1061 q 415 1096 440 1096 q 372 1078 390 1096 q 354 1035 354 1061 q 372 991 354 1009 q 415 974 390 974 q 458 991 440 974 q 476 1035 476 1009 m 245 1040 q 295 1161 245 1113 q 415 1210 345 1210 q 535 1161 485 1210 q 585 1040 585 1113 l 585 1029 q 535 908 585 957 q 415 860 485 860 q 295 908 345 860 q 245 1029 245 957 l 245 1040 z "},"ů":{"ha":830,"x_min":68,"x_max":762,"o":"m 627 347 l 627 972 l 762 972 l 762 347 q 661 98 762 203 q 415 -7 559 -7 q 170 98 271 -7 q 68 347 68 203 l 68 972 l 203 972 l 203 347 q 266 198 203 260 q 415 136 328 136 q 565 198 503 136 q 627 347 627 260 m 476 1035 q 458 1078 476 1061 q 415 1096 440 1096 q 372 1078 390 1096 q 354 1035 354 1061 q 372 991 354 1009 q 415 974 390 974 q 458 991 440 974 q 476 1035 476 1009 m 245 1040 q 295 1161 245 1113 q 415 1210 345 1210 q 535 1161 485 1210 q 585 1040 585 1113 l 585 1029 q 535 908 585 957 q 415 860 485 860 q 295 908 345 860 q 245 1029 245 957 l 245 1040 z "},"˘":{"ha":475,"x_min":68,"x_max":407,"o":"m 176 1210 q 194 1166 176 1184 q 237 1149 212 1149 q 280 1166 262 1149 q 298 1210 298 1184 l 407 1210 l 407 1204 q 357 1083 407 1132 q 237 1035 307 1035 q 118 1083 168 1035 q 68 1204 68 1132 l 68 1210 l 176 1210 z "},"Ğ":{"ha":814,"x_min":68,"x_max":746,"o":"m 610 407 l 475 407 l 475 543 l 746 543 l 746 0 l 483 0 q 190 142 311 0 q 68 486 68 285 q 190 833 68 688 q 483 979 311 979 q 678 917 590 979 l 678 737 q 483 837 597 837 q 285 734 367 837 q 203 486 203 631 q 285 238 203 341 q 483 136 367 136 l 610 136 l 610 407 m 422 1210 q 440 1166 422 1184 q 483 1149 458 1149 q 526 1166 508 1149 q 544 1210 544 1184 l 652 1210 l 652 1204 q 603 1083 652 1132 q 483 1035 553 1035 q 363 1083 413 1035 q 313 1204 313 1132 l 313 1210 l 422 1210 z "},"ğ":{"ha":814,"x_min":68,"x_max":746,"o":"m 610 407 l 475 407 l 475 543 l 746 543 l 746 0 l 483 0 q 190 142 311 0 q 68 486 68 285 q 190 833 68 688 q 483 979 311 979 q 678 917 590 979 l 678 737 q 483 837 597 837 q 285 734 367 837 q 203 486 203 631 q 285 238 203 341 q 483 136 367 136 l 610 136 l 610 407 m 422 1210 q 440 1166 422 1184 q 483 1149 458 1149 q 526 1166 508 1149 q 544 1210 544 1184 l 652 1210 l 652 1204 q 603 1083 652 1132 q 483 1035 553 1035 q 363 1083 413 1035 q 313 1204 313 1132 l 313 1210 l 422 1210 z "},"Ă":{"ha":694,"x_min":0,"x_max":694,"o":"m 509 203 l 186 203 l 138 0 l 0 0 l 228 972 l 467 972 l 694 0 l 556 0 l 509 203 m 218 339 l 477 339 l 347 894 l 218 339 m 286 1210 q 304 1166 286 1184 q 347 1149 322 1149 q 390 1166 372 1149 q 408 1210 408 1184 l 517 1210 l 517 1204 q 467 1083 517 1132 q 347 1035 417 1035 q 228 1083 277 1035 q 178 1204 178 1132 l 178 1210 l 286 1210 z "},"ă":{"ha":694,"x_min":0,"x_max":694,"o":"m 509 203 l 186 203 l 138 0 l 0 0 l 228 972 l 467 972 l 694 0 l 556 0 l 509 203 m 218 339 l 477 339 l 347 894 l 218 339 m 286 1210 q 304 1166 286 1184 q 347 1149 322 1149 q 390 1166 372 1149 q 408 1210 408 1184 l 517 1210 l 517 1204 q 467 1083 517 1132 q 347 1035 417 1035 q 228 1083 277 1035 q 178 1204 178 1132 l 178 1210 l 286 1210 z "},"Ș":{"ha":796,"x_min":68,"x_max":728,"o":"m 381 418 q 160 499 252 418 q 68 696 68 581 q 160 895 68 810 q 441 979 252 979 q 636 929 578 972 l 636 774 l 635 775 q 441 837 583 830 q 255 795 307 837 q 203 696 203 754 q 255 595 203 637 q 381 554 307 554 q 627 473 525 554 q 728 277 728 392 q 627 78 728 162 q 305 -7 525 -7 q 68 58 149 0 l 68 208 q 305 136 144 142 q 531 177 469 136 q 593 277 593 218 q 531 377 593 336 q 381 418 469 418 m 215 -237 l 302 -68 l 479 -68 l 321 -237 l 215 -237 z "},"ș":{"ha":796,"x_min":68,"x_max":728,"o":"m 381 418 q 160 499 252 418 q 68 696 68 581 q 160 895 68 810 q 441 979 252 979 q 636 929 578 972 l 636 774 l 635 775 q 441 837 583 830 q 255 795 307 837 q 203 696 203 754 q 255 595 203 637 q 381 554 307 554 q 627 473 525 554 q 728 277 728 392 q 627 78 728 162 q 305 -7 525 -7 q 68 58 149 0 l 68 208 q 305 136 144 142 q 531 177 469 136 q 593 277 593 218 q 531 377 593 336 q 381 418 469 418 m 215 -237 l 302 -68 l 479 -68 l 321 -237 l 215 -237 z "},"Ț":{"ha":694,"x_min":68,"x_max":627,"o":"m 627 972 l 627 837 l 415 837 l 415 0 l 279 0 l 279 837 l 68 837 l 68 972 l 627 972 m 178 -237 l 264 -68 l 442 -68 l 283 -237 l 178 -237 z "},"ț":{"ha":694,"x_min":68,"x_max":627,"o":"m 627 972 l 627 837 l 415 837 l 415 0 l 279 0 l 279 837 l 68 837 l 68 972 l 627 972 m 178 -237 l 264 -68 l 442 -68 l 283 -237 l 178 -237 z "},"Ŭ":{"ha":830,"x_min":68,"x_max":762,"o":"m 627 347 l 627 972 l 762 972 l 762 347 q 661 98 762 203 q 415 -7 559 -7 q 170 98 271 -7 q 68 347 68 203 l 68 972 l 203 972 l 203 347 q 266 198 203 260 q 415 136 328 136 q 565 198 503 136 q 627 347 627 260 m 354 1210 q 372 1166 354 1184 q 415 1149 390 1149 q 458 1166 440 1149 q 476 1210 476 1184 l 585 1210 l 585 1204 q 535 1083 585 1132 q 415 1035 485 1035 q 295 1083 345 1035 q 245 1204 245 1132 l 245 1210 l 354 1210 z "},"ŭ":{"ha":830,"x_min":68,"x_max":762,"o":"m 627 347 l 627 972 l 762 972 l 762 347 q 661 98 762 203 q 415 -7 559 -7 q 170 98 271 -7 q 68 347 68 203 l 68 972 l 203 972 l 203 347 q 266 198 203 260 q 415 136 328 136 q 565 198 503 136 q 627 347 627 260 m 354 1210 q 372 1166 354 1184 q 415 1149 390 1149 q 458 1166 440 1149 q 476 1210 476 1184 l 585 1210 l 585 1204 q 535 1083 585 1132 q 415 1035 485 1035 q 295 1083 345 1035 q 245 1204 245 1132 l 245 1210 l 354 1210 z "},"Ć":{"ha":746,"x_min":68,"x_max":694,"o":"m 678 235 l 678 56 q 483 -7 590 -7 q 190 139 311 -7 q 68 486 68 285 q 190 833 68 688 q 483 979 311 979 q 678 917 590 979 l 678 737 q 483 837 597 837 q 285 734 367 837 q 203 486 203 631 q 285 238 203 341 q 483 136 367 136 q 678 235 597 136 m 430 1040 l 517 1210 l 694 1210 l 536 1040 l 430 1040 z "},"ć":{"ha":746,"x_min":68,"x_max":694,"o":"m 678 235 l 678 56 q 483 -7 590 -7 q 190 139 311 -7 q 68 486 68 285 q 190 833 68 688 q 483 979 311 979 q 678 917 590 979 l 678 737 q 483 837 597 837 q 285 734 367 837 q 203 486 203 631 q 285 238 203 341 q 483 136 367 136 q 678 235 597 136 m 430 1040 l 517 1210 l 694 1210 l 536 1040 l 430 1040 z "},"Ś":{"ha":796,"x_min":68,"x_max":728,"o":"m 381 418 q 160 499 252 418 q 68 696 68 581 q 160 895 68 810 q 441 979 252 979 q 636 929 578 972 l 636 774 l 635 775 q 441 837 583 830 q 255 795 307 837 q 203 696 203 754 q 255 595 203 637 q 381 554 307 554 q 627 473 525 554 q 728 277 728 392 q 627 78 728 162 q 305 -7 525 -7 q 68 58 149 0 l 68 208 q 305 136 144 142 q 531 177 469 136 q 593 277 593 218 q 531 377 593 336 q 381 418 469 418 m 328 1040 l 415 1210 l 593 1210 l 434 1040 l 328 1040 z "},"ś":{"ha":796,"x_min":68,"x_max":728,"o":"m 381 418 q 160 499 252 418 q 68 696 68 581 q 160 895 68 810 q 441 979 252 979 q 636 929 578 972 l 636 774 l 635 775 q 441 837 583 830 q 255 795 307 837 q 203 696 203 754 q 255 595 203 637 q 381 554 307 554 q 627 473 525 554 q 728 277 728 392 q 627 78 728 162 q 305 -7 525 -7 q 68 58 149 0 l 68 208 q 305 136 144 142 q 531 177 469 136 q 593 277 593 218 q 531 377 593 336 q 381 418 469 418 m 328 1040 l 415 1210 l 593 1210 l 434 1040 l 328 1040 z "},"Ź":{"ha":694,"x_min":68,"x_max":627,"o":"m 482 837 l 68 837 l 68 972 l 627 972 l 627 837 l 212 136 l 627 136 l 627 0 l 68 0 l 68 136 l 482 837 m 294 1040 l 381 1210 l 559 1210 l 400 1040 l 294 1040 z "},"ź":{"ha":694,"x_min":68,"x_max":627,"o":"m 482 837 l 68 837 l 68 972 l 627 972 l 627 837 l 212 136 l 627 136 l 627 0 l 68 0 l 68 136 l 482 837 m 294 1040 l 381 1210 l 559 1210 l 400 1040 l 294 1040 z "},"Ł":{"ha":694,"x_min":0,"x_max":627,"o":"m 271 429 l 271 136 l 627 136 l 627 0 l 136 0 l 136 373 l 0 317 l 0 452 l 136 509 l 136 972 l 271 972 l 271 565 l 491 656 l 491 520 l 271 429 z "},"ł":{"ha":694,"x_min":0,"x_max":627,"o":"m 271 429 l 271 136 l 627 136 l 627 0 l 136 0 l 136 373 l 0 317 l 0 452 l 136 509 l 136 972 l 271 972 l 271 565 l 491 656 l 491 520 l 271 429 z "},"˛":{"ha":475,"x_min":98,"x_max":376,"o":"m 258 -237 l 248 -237 q 137 -196 175 -237 q 99 -111 99 -155 q 98 -95 98 -103 q 150 27 98 -33 q 280 102 202 88 l 294 61 q 227 -1 254 27 q 190 -87 190 -38 q 246 -129 190 -129 q 296 -111 279 -129 l 376 -191 q 258 -237 329 -237 z "},"Ą":{"ha":694,"x_min":0,"x_max":694,"o":"m 218 339 l 477 339 l 347 894 l 218 339 m 554 9 l 545 -1 q 508 -87 508 -38 q 564 -129 508 -129 q 614 -111 597 -129 l 694 -191 q 576 -237 647 -237 l 566 -237 q 455 -196 493 -237 q 417 -111 417 -155 q 416 -95 416 -103 q 469 28 416 -33 q 537 82 498 62 l 509 203 l 186 203 l 138 0 l 0 0 l 228 972 l 467 972 l 694 0 l 556 0 l 554 9 z "},"ą":{"ha":694,"x_min":0,"x_max":694,"o":"m 218 339 l 477 339 l 347 894 l 218 339 m 554 9 l 545 -1 q 508 -87 508 -38 q 564 -129 508 -129 q 614 -111 597 -129 l 694 -191 q 576 -237 647 -237 l 566 -237 q 455 -196 493 -237 q 417 -111 417 -155 q 416 -95 416 -103 q 469 28 416 -33 q 537 82 498 62 l 509 203 l 186 203 l 138 0 l 0 0 l 228 972 l 467 972 l 694 0 l 556 0 l 554 9 z "},"Ę":{"ha":694,"x_min":68,"x_max":627,"o":"m 380 0 l 68 0 l 68 972 l 627 972 l 627 837 l 203 837 l 203 554 l 559 554 l 559 418 l 203 418 l 203 136 l 627 136 l 627 0 l 477 0 l 477 -1 q 440 -87 440 -38 q 496 -129 440 -129 q 547 -111 529 -129 l 627 -191 q 509 -237 579 -237 l 498 -237 q 387 -196 425 -237 q 349 -111 349 -155 q 349 -95 349 -103 q 380 0 349 -47 z "},"ę":{"ha":694,"x_min":68,"x_max":627,"o":"m 380 0 l 68 0 l 68 972 l 627 972 l 627 837 l 203 837 l 203 554 l 559 554 l 559 418 l 203 418 l 203 136 l 627 136 l 627 0 l 477 0 l 477 -1 q 440 -87 440 -38 q 496 -129 440 -129 q 547 -111 529 -129 l 627 -191 q 509 -237 579 -237 l 498 -237 q 387 -196 425 -237 q 349 -111 349 -155 q 349 -95 349 -103 q 380 0 349 -47 z "},"Į":{"ha":271,"x_min":0,"x_max":278,"o":"m 68 44 l 68 972 l 203 972 l 203 0 l 129 0 l 128 -1 q 92 -87 92 -38 q 148 -129 92 -129 q 198 -111 180 -129 l 278 -191 q 160 -237 231 -237 l 149 -237 q 39 -196 77 -237 q 1 -111 1 -155 q 0 -95 0 -103 q 52 28 0 -33 q 68 44 60 37 z "},"į":{"ha":271,"x_min":0,"x_max":278,"o":"m 68 44 l 68 972 l 203 972 l 203 0 l 129 0 l 128 -1 q 92 -87 92 -38 q 148 -129 92 -129 q 198 -111 180 -129 l 278 -191 q 160 -237 231 -237 l 149 -237 q 39 -196 77 -237 q 1 -111 1 -155 q 0 -95 0 -103 q 52 28 0 -33 q 68 44 60 37 z "},"Ų":{"ha":830,"x_min":68,"x_max":762,"o":"m 376 -5 q 170 98 258 7 q 68 347 68 203 l 68 972 l 203 972 l 203 347 q 266 198 203 260 q 415 136 328 136 q 565 198 503 136 q 627 347 627 260 l 627 972 l 762 972 l 762 347 q 661 98 762 203 q 475 -2 581 16 q 440 -87 440 -39 q 496 -129 440 -129 q 547 -111 529 -129 l 627 -191 q 509 -237 579 -237 l 498 -237 q 387 -196 425 -237 q 349 -111 349 -155 q 349 -95 349 -103 q 376 -5 349 -50 z "},"ų":{"ha":830,"x_min":68,"x_max":762,"o":"m 376 -5 q 170 98 258 7 q 68 347 68 203 l 68 972 l 203 972 l 203 347 q 266 198 203 260 q 415 136 328 136 q 565 198 503 136 q 627 347 627 260 l 627 972 l 762 972 l 762 347 q 661 98 762 203 q 475 -2 581 16 q 440 -87 440 -39 q 496 -129 440 -129 q 547 -111 529 -129 l 627 -191 q 509 -237 579 -237 l 498 -237 q 387 -196 425 -237 q 349 -111 349 -155 q 349 -95 349 -103 q 376 -5 349 -50 z "},"Ǫ":{"ha":966,"x_min":68,"x_max":898,"o":"m 483 136 q 681 238 599 136 q 762 486 762 341 q 681 734 762 631 q 483 837 599 837 q 285 734 367 837 q 203 486 203 631 q 285 238 203 341 q 483 136 367 136 m 444 -5 q 190 139 298 10 q 68 486 68 285 q 190 833 68 688 q 483 979 311 979 q 776 833 654 979 q 898 486 898 688 q 777 139 898 285 q 543 -2 676 20 q 508 -87 508 -39 q 564 -129 508 -129 q 614 -111 597 -129 l 694 -191 q 576 -237 647 -237 l 566 -237 q 455 -196 493 -237 q 417 -111 417 -155 q 416 -95 416 -103 q 444 -5 416 -50 z "},"ǫ":{"ha":966,"x_min":68,"x_max":898,"o":"m 483 136 q 681 238 599 136 q 762 486 762 341 q 681 734 762 631 q 483 837 599 837 q 285 734 367 837 q 203 486 203 631 q 285 238 203 341 q 483 136 367 136 m 444 -5 q 190 139 298 10 q 68 486 68 285 q 190 833 68 688 q 483 979 311 979 q 776 833 654 979 q 898 486 898 688 q 777 139 898 285 q 543 -2 676 20 q 508 -87 508 -39 q 564 -129 508 -129 q 614 -111 597 -129 l 694 -191 q 576 -237 647 -237 l 566 -237 q 455 -196 493 -237 q 417 -111 417 -155 q 416 -95 416 -103 q 444 -5 416 -50 z "},"Đ":{"ha":746,"x_min":0,"x_max":678,"o":"m 203 418 l 203 136 l 263 136 q 461 238 379 136 q 543 486 543 341 q 461 734 543 631 q 263 837 379 837 l 203 837 l 203 554 l 347 554 l 347 418 l 203 418 m 68 554 l 68 972 l 263 972 q 556 830 435 972 q 678 486 678 688 q 556 142 678 285 q 263 0 435 0 l 68 0 l 68 418 l 0 418 l 0 554 l 68 554 z "},"đ":{"ha":746,"x_min":0,"x_max":678,"o":"m 203 418 l 203 136 l 263 136 q 461 238 379 136 q 543 486 543 341 q 461 734 543 631 q 263 837 379 837 l 203 837 l 203 554 l 347 554 l 347 418 l 203 418 m 68 554 l 68 972 l 263 972 q 556 830 435 972 q 678 486 678 688 q 556 142 678 285 q 263 0 435 0 l 68 0 l 68 418 l 0 418 l 0 554 l 68 554 z "},"Ð":{"ha":746,"x_min":0,"x_max":678,"o":"m 203 418 l 203 136 l 263 136 q 461 238 379 136 q 543 486 543 341 q 461 734 543 631 q 263 837 379 837 l 203 837 l 203 554 l 347 554 l 347 418 l 203 418 m 68 554 l 68 972 l 263 972 q 556 830 435 972 q 678 486 678 688 q 556 142 678 285 q 263 0 435 0 l 68 0 l 68 418 l 0 418 l 0 554 l 68 554 z "},"ð":{"ha":746,"x_min":0,"x_max":678,"o":"m 203 418 l 203 136 l 263 136 q 461 238 379 136 q 543 486 543 341 q 461 734 543 631 q 263 837 379 837 l 203 837 l 203 554 l 347 554 l 347 418 l 203 418 m 68 554 l 68 972 l 263 972 q 556 830 435 972 q 678 486 678 688 q 556 142 678 285 q 263 0 435 0 l 68 0 l 68 418 l 0 418 l 0 554 l 68 554 z "},"Ɖ":{"ha":746,"x_min":0,"x_max":678,"o":"m 203 418 l 203 136 l 263 136 q 461 238 379 136 q 543 486 543 341 q 461 734 543 631 q 263 837 379 837 l 203 837 l 203 554 l 347 554 l 347 418 l 203 418 m 68 554 l 68 972 l 263 972 q 556 830 435 972 q 678 486 678 688 q 556 142 678 285 q 263 0 435 0 l 68 0 l 68 418 l 0 418 l 0 554 l 68 554 z "},"ɖ":{"ha":746,"x_min":0,"x_max":678,"o":"m 203 418 l 203 136 l 263 136 q 461 238 379 136 q 543 486 543 341 q 461 734 543 631 q 263 837 379 837 l 203 837 l 203 554 l 347 554 l 347 418 l 203 418 m 68 554 l 68 972 l 263 972 q 556 830 435 972 q 678 486 678 688 q 556 142 678 285 q 263 0 435 0 l 68 0 l 68 418 l 0 418 l 0 554 l 68 554 z "},"Þ":{"ha":678,"x_min":68,"x_max":610,"o":"m 203 278 l 263 278 q 413 340 351 278 q 475 490 475 402 q 413 639 475 577 q 263 701 351 701 l 203 701 l 203 278 m 203 837 l 263 837 q 509 735 407 837 q 610 490 610 633 q 509 244 610 346 q 263 142 407 142 l 203 142 l 203 0 l 68 0 l 68 972 l 203 972 l 203 837 z "},"þ":{"ha":678,"x_min":68,"x_max":610,"o":"m 203 278 l 263 278 q 413 340 351 278 q 475 490 475 402 q 413 639 475 577 q 263 701 351 701 l 203 701 l 203 278 m 203 837 l 263 837 q 509 735 407 837 q 610 490 610 633 q 509 244 610 346 q 263 142 407 142 l 203 142 l 203 0 l 68 0 l 68 972 l 203 972 l 203 837 z "},"Ħ":{"ha":694,"x_min":0,"x_max":694,"o":"m 627 696 l 627 0 l 491 0 l 491 418 l 203 418 l 203 0 l 68 0 l 68 696 l 0 696 l 0 831 l 68 831 l 68 972 l 203 972 l 203 831 l 491 831 l 491 972 l 627 972 l 627 831 l 694 831 l 694 696 l 627 696 m 203 696 l 203 554 l 491 554 l 491 696 l 203 696 z "},"ħ":{"ha":694,"x_min":0,"x_max":694,"o":"m 627 696 l 627 0 l 491 0 l 491 418 l 203 418 l 203 0 l 68 0 l 68 696 l 0 696 l 0 831 l 68 831 l 68 972 l 203 972 l 203 831 l 491 831 l 491 972 l 627 972 l 627 831 l 694 831 l 694 696 l 627 696 m 203 696 l 203 554 l 491 554 l 491 696 l 203 696 z "},"Ő":{"ha":966,"x_min":68,"x_max":898,"o":"m 483 136 q 681 238 599 136 q 762 486 762 341 q 681 734 762 631 q 483 837 599 837 q 285 734 367 837 q 203 486 203 631 q 285 238 203 341 q 483 136 367 136 m 483 -7 q 190 139 311 -7 q 68 486 68 285 q 190 833 68 688 q 483 979 311 979 q 776 833 654 979 q 898 486 898 688 q 776 139 898 285 q 483 -7 654 -7 m 543 1040 l 630 1210 l 808 1210 l 649 1040 l 543 1040 m 317 1040 l 404 1210 l 581 1210 l 422 1040 l 317 1040 z "},"ő":{"ha":966,"x_min":68,"x_max":898,"o":"m 483 136 q 681 238 599 136 q 762 486 762 341 q 681 734 762 631 q 483 837 599 837 q 285 734 367 837 q 203 486 203 631 q 285 238 203 341 q 483 136 367 136 m 483 -7 q 190 139 311 -7 q 68 486 68 285 q 190 833 68 688 q 483 979 311 979 q 776 833 654 979 q 898 486 898 688 q 776 139 898 285 q 483 -7 654 -7 m 543 1040 l 630 1210 l 808 1210 l 649 1040 l 543 1040 m 317 1040 l 404 1210 l 581 1210 l 422 1040 l 317 1040 z "},"Ű":{"ha":830,"x_min":68,"x_max":762,"o":"m 627 347 l 627 972 l 762 972 l 762 347 q 661 98 762 203 q 415 -7 559 -7 q 170 98 271 -7 q 68 347 68 203 l 68 972 l 203 972 l 203 347 q 266 198 203 260 q 415 136 328 136 q 565 198 503 136 q 627 347 627 260 m 453 1040 l 540 1210 l 718 1210 l 559 1040 l 453 1040 m 227 1040 l 313 1210 l 491 1210 l 332 1040 l 227 1040 z "},"ű":{"ha":830,"x_min":68,"x_max":762,"o":"m 627 347 l 627 972 l 762 972 l 762 347 q 661 98 762 203 q 415 -7 559 -7 q 170 98 271 -7 q 68 347 68 203 l 68 972 l 203 972 l 203 347 q 266 198 203 260 q 415 136 328 136 q 565 198 503 136 q 627 347 627 260 m 453 1040 l 540 1210 l 718 1210 l 559 1040 l 453 1040 m 227 1040 l 313 1210 l 491 1210 l 332 1040 l 227 1040 z "},"⸮":{"ha":762,"x_min":102,"x_max":661,"o":"m 389 0 l 389 136 l 525 136 l 525 0 l 389 0 m 525 271 l 389 271 q 245 458 389 336 q 102 696 102 581 q 190 895 102 810 q 457 979 279 979 q 661 902 602 972 l 661 747 l 659 748 q 457 837 607 830 q 286 795 334 837 q 237 696 237 754 q 381 514 237 637 q 525 271 525 392 z "},"₵":{"ha":746,"x_min":68,"x_max":678,"o":"m 389 968 l 389 1108 l 491 1108 l 491 979 q 678 917 593 977 l 678 737 q 491 837 600 833 l 491 136 q 678 235 600 139 l 678 56 q 491 -7 593 -4 l 491 -136 l 389 -136 l 389 5 q 190 139 277 35 q 68 486 68 285 q 190 833 68 688 q 389 968 277 938 m 389 155 l 389 818 q 286 734 332 793 q 203 486 203 631 q 286 239 203 341 q 389 155 332 180 z "},"․":{"ha":271,"x_min":68,"x_max":203,"o":"m 203 0 l 68 0 l 68 136 l 203 136 l 203 0 z "},"‐":{"ha":423,"x_min":68,"x_max":355,"o":"m 355 418 l 68 418 l 68 554 l 355 554 l 355 418 z "},"‑":{"ha":694,"x_min":0,"x_max":694,"o":"m 694 418 l 0 418 l 0 554 l 694 554 l 694 418 z "},"⁏":{"ha":271,"x_min":68,"x_max":271,"o":"m 136 0 l 271 -68 l 271 -136 l 68 -68 l 68 136 l 203 136 l 203 0 l 136 0 m 203 514 l 68 514 l 68 650 l 203 650 l 203 514 z "},"‧":{"ha":271,"x_min":68,"x_max":203,"o":"m 203 418 l 68 418 l 68 554 l 203 554 l 203 418 z "},"‥":{"ha":543,"x_min":68,"x_max":475,"o":"m 203 0 l 68 0 l 68 136 l 203 136 l 203 0 m 475 0 l 339 0 l 339 136 l 475 136 l 475 0 z "}}}
